<?xml version="1.0" encoding="UTF-8"?>
<!DOCTYPE svg PUBLIC "-//W3C//DTD SVG 1.1//EN" "http://www.w3.org/Graphics/SVG/1.1/DTD/svg11.dtd">
<svg xmlns="http://www.w3.org/2000/svg" version="1.1" width="512px" height="512px" style="shape-rendering:geometricPrecision; text-rendering:geometricPrecision; image-rendering:optimizeQuality; fill-rule:evenodd; clip-rule:evenodd" xmlns:xlink="http://www.w3.org/1999/xlink">
<g><path style="opacity:0.991" fill="#010101" d="M 511.5,55.5 C 511.5,184.167 511.5,312.833 511.5,441.5C 502.957,460.295 489.29,465.128 470.5,456C 463.982,451.131 460.482,444.631 460,436.5C 459.5,416.169 459.333,395.836 459.5,375.5C 454.167,375.5 448.833,375.5 443.5,375.5C 443.666,385.839 443.5,396.172 443,406.5C 438.187,421.95 427.687,428.45 411.5,426C 400.889,423.056 394.389,416.223 392,405.5C 391.5,395.506 391.334,385.506 391.5,375.5C 262.833,375.667 134.166,375.5 5.5,375C 2.85408,374.196 0.854084,372.696 -0.5,370.5C -0.5,265.5 -0.5,160.5 -0.5,55.5C 0.646381,53.525 2.31305,52.025 4.5,51C 171.833,50.3333 339.167,50.3333 506.5,51C 508.687,52.025 510.354,53.525 511.5,55.5 Z"/></g>
<g><path style="opacity:1" fill="#7ec8c7" d="M 16.5,67.5 C 92.1674,67.3333 167.834,67.5 243.5,68C 246.35,70.6824 249.016,73.5157 251.5,76.5C 242.181,86.3192 232.681,95.9859 223,105.5C 221.121,108.8 221.121,112.134 223,115.5C 232.681,125.014 242.181,134.681 251.5,144.5C 242.514,153.986 233.348,163.319 224,172.5C 221.06,175.884 220.727,179.551 223,183.5C 232.681,193.014 242.181,202.681 251.5,212.5C 242.514,221.986 233.348,231.319 224,240.5C 220.667,244.833 220.667,249.167 224,253.5C 233.348,262.681 242.514,272.014 251.5,281.5C 241.848,291.653 232.014,301.653 222,311.5C 221.004,315.207 221.67,318.541 224,321.5C 233,330.5 242,339.5 251,348.5C 249.763,351.776 247.597,354.609 244.5,357C 168.501,357.5 92.5007,357.667 16.5,357.5C 16.5,260.833 16.5,164.167 16.5,67.5 Z"/></g>
<g><path style="opacity:1" fill="#228790" d="M 267.5,68.5 C 274.648,67.5084 281.981,67.175 289.5,67.5C 289.5,164.167 289.5,260.833 289.5,357.5C 282.492,357.666 275.492,357.5 268.5,357C 272.613,353.491 273.446,349.324 271,344.5C 261.319,334.986 251.819,325.319 242.5,315.5C 251.486,306.014 260.652,296.681 270,287.5C 272.33,284.541 272.996,281.207 272,277.5C 261.791,267.625 251.957,257.458 242.5,247C 251.624,236.875 261.124,227.042 271,217.5C 273.273,213.551 272.94,209.884 270,206.5C 260.652,197.319 251.486,187.986 242.5,178.5C 251.819,168.681 261.319,159.014 271,149.5C 272.879,146.134 272.879,142.8 271,139.5C 261.319,129.986 251.819,120.319 242.5,110.5C 252.516,100.318 262.349,89.9847 272,79.5C 273.606,74.4852 272.106,70.8185 267.5,68.5 Z"/></g>
<g><path style="opacity:1" fill="#774946" d="M 391.5,67.5 C 391.5,67.8333 391.5,68.1667 391.5,68.5C 363.5,68.5 335.5,68.5 307.5,68.5C 307.5,96.5 307.5,124.5 307.5,152.5C 307.167,152.5 306.833,152.5 306.5,152.5C 306.5,124.167 306.5,95.8333 306.5,67.5C 334.833,67.5 363.167,67.5 391.5,67.5 Z"/></g>
<g><path style="opacity:1" fill="#975e5a" d="M 391.5,68.5 C 391.5,96.5 391.5,124.5 391.5,152.5C 363.5,152.5 335.5,152.5 307.5,152.5C 307.5,124.5 307.5,96.5 307.5,68.5C 335.5,68.5 363.5,68.5 391.5,68.5 Z"/></g>
<g><path style="opacity:1" fill="#ad8383" d="M 409.5,67.5 C 437.833,67.5 466.167,67.5 494.5,67.5C 494.5,95.8333 494.5,124.167 494.5,152.5C 494.5,124.167 494.5,95.8333 494.5,67.5C 466.167,67.5 437.833,67.5 409.5,67.5 Z"/></g>
<g><path style="opacity:1" fill="#020101" d="M 362.5,85.5 C 367.223,84.5531 371.056,85.8864 374,89.5C 374.667,103.5 374.667,117.5 374,131.5C 372.833,132.667 371.667,133.833 370.5,135C 356.5,135.667 342.5,135.667 328.5,135C 323.167,130 323.167,125 328.5,120C 338.161,119.5 347.828,119.334 357.5,119.5C 357.334,110.161 357.5,100.827 358,91.5C 358.804,88.8541 360.304,86.8541 362.5,85.5 Z"/></g>
<g><path style="opacity:1" fill="#070404" d="M 464.5,85.5 C 467.187,85.3359 469.854,85.5026 472.5,86C 474.667,86.8333 476.167,88.3333 477,90.5C 477.667,103.833 477.667,117.167 477,130.5C 475.52,133.663 473.02,135.496 469.5,136C 457.167,136.667 444.833,136.667 432.5,136C 426.911,133.549 425.078,129.383 427,123.5C 428.543,121.622 430.376,120.122 432.5,119C 441.827,118.5 451.161,118.334 460.5,118.5C 460.334,108.828 460.5,99.1609 461,89.5C 462.376,88.2949 463.542,86.9616 464.5,85.5 Z"/></g>
<g><path style="opacity:1" fill="#040404" d="M 56.5,144.5 C 60.9869,144.161 64.4869,145.827 67,149.5C 67.6667,191.5 67.6667,233.5 67,275.5C 63.7262,280.738 59.2262,281.904 53.5,279C 52.283,277.352 51.4497,275.519 51,273.5C 50.3333,232.5 50.3333,191.5 51,150.5C 52.3597,147.977 54.193,145.977 56.5,144.5 Z"/></g>
<g><path style="opacity:1" fill="#020303" d="M 143.5,144.5 C 178.043,142.678 202.543,157.344 217,188.5C 226.979,221.893 218.146,249.06 190.5,270C 153.406,289.679 121.906,283.179 96,250.5C 75.9418,212.718 82.7752,180.885 116.5,155C 125.048,149.99 134.048,146.49 143.5,144.5 Z"/></g>
<g><path style="opacity:1" fill="#573533" d="M 391.5,67.5 C 392.498,95.9951 392.831,124.662 392.5,153.5C 363.662,153.831 334.995,153.498 306.5,152.5C 306.833,152.5 307.167,152.5 307.5,152.5C 335.5,152.5 363.5,152.5 391.5,152.5C 391.5,124.5 391.5,96.5 391.5,68.5C 391.5,68.1667 391.5,67.8333 391.5,67.5 Z"/></g>
<g><path style="opacity:1" fill="#5c4545" d="M 409.5,67.5 C 409.5,95.8333 409.5,124.167 409.5,152.5C 437.833,152.5 466.167,152.5 494.5,152.5C 466.005,153.498 437.338,153.831 408.5,153.5C 408.169,124.662 408.502,95.9951 409.5,67.5 Z"/></g>
<g><path style="opacity:1" fill="#238690" d="M 145.5,161.5 C 171.522,160.086 190.022,171.086 201,194.5C 208.327,218.85 202.16,239.017 182.5,255C 155.795,269.719 132.295,265.885 112,243.5C 103.009,230.842 100.009,216.842 103,201.5C 109.303,179.694 123.47,166.361 145.5,161.5 Z"/></g>
<g><path style="opacity:1" fill="#ac8282" d="M 306.5,170.5 C 335.167,170.5 363.833,170.5 392.5,170.5C 392.5,198.833 392.5,227.167 392.5,255.5C 363.833,255.5 335.167,255.5 306.5,255.5C 306.5,227.167 306.5,198.833 306.5,170.5 Z"/></g>
<g><path style="opacity:1" fill="#985e5a" d="M 409.5,170.5 C 437.833,170.5 466.167,170.5 494.5,170.5C 494.5,198.833 494.5,227.167 494.5,255.5C 466.167,255.5 437.833,255.5 409.5,255.5C 409.5,227.167 409.5,198.833 409.5,170.5 Z"/></g>
<g><path style="opacity:1" fill="#020202" d="M 157.5,179.5 C 177.645,178.811 187.145,188.477 186,208.5C 182.491,212.613 178.324,213.446 173.5,211C 171.407,206.957 169.574,202.79 168,198.5C 163.667,196.5 159.333,194.5 155,192.5C 152.458,187.438 153.292,183.105 157.5,179.5 Z"/></g>
<g><path style="opacity:1" fill="#040202" d="M 362.5,187.5 C 367.126,186.7 370.96,188.034 374,191.5C 374.966,206.26 374.633,220.927 373,235.5C 371.745,236.211 370.579,237.044 369.5,238C 356.167,238.667 342.833,238.667 329.5,238C 322.115,233.123 321.782,227.789 328.5,222C 338.161,221.5 347.828,221.334 357.5,221.5C 357.334,212.161 357.5,202.827 358,193.5C 359.332,191.34 360.832,189.34 362.5,187.5 Z"/></g>
<g><path style="opacity:1" fill="#020101" d="M 465.5,187.5 C 471.493,186.332 475.326,188.665 477,194.5C 477.962,207.928 477.629,221.261 476,234.5C 474.786,236.049 473.286,237.215 471.5,238C 458.167,238.667 444.833,238.667 431.5,238C 424.844,232.618 424.844,227.285 431.5,222C 441.161,221.5 450.828,221.334 460.5,221.5C 460.334,211.828 460.5,202.161 461,192.5C 462.025,190.313 463.525,188.646 465.5,187.5 Z"/></g>
<g><path style="opacity:1" fill="#965d59" d="M 306.5,272.5 C 335.167,272.5 363.833,272.5 392.5,272.5C 392.5,300.833 392.5,329.167 392.5,357.5C 363.833,357.5 335.167,357.5 306.5,357.5C 306.5,329.167 306.5,300.833 306.5,272.5 Z"/></g>
<g><path style="opacity:1" fill="#ad8282" d="M 409.5,272.5 C 437.833,272.5 466.167,272.5 494.5,272.5C 494.667,327.501 494.5,382.501 494,437.5C 489.123,444.885 483.789,445.218 478,438.5C 477.667,413.5 477.333,388.5 477,363.5C 475.52,360.337 473.02,358.504 469.5,358C 463.333,357.833 457.167,357.667 451,357.5C 444.065,357.37 437.232,357.87 430.5,359C 429.333,360.167 428.167,361.333 427,362.5C 426.948,376.568 426.281,390.568 425,404.5C 423.471,407.516 420.971,408.849 417.5,408.5C 414.209,408.721 411.709,407.387 410,404.5C 409.5,360.501 409.333,316.501 409.5,272.5 Z"/></g>
<g><path style="opacity:1" fill="#040303" d="M 363.5,289.5 C 368.219,288.74 371.719,290.407 374,294.5C 374.965,308.927 374.632,323.26 373,337.5C 372.097,338.701 370.931,339.535 369.5,340C 355.833,340.667 342.167,340.667 328.5,340C 324.723,337.045 323.557,333.212 325,328.5C 325.93,326.448 327.43,324.948 329.5,324C 338.827,323.5 348.161,323.334 357.5,323.5C 357.334,314.494 357.5,305.494 358,296.5C 358.967,293.379 360.8,291.046 363.5,289.5 Z"/></g>
<g><path style="opacity:1" fill="#030201" d="M 465.5,289.5 C 470.739,288.959 474.572,290.959 477,295.5C 477.667,308.167 477.667,320.833 477,333.5C 476.608,336.455 475.108,338.622 472.5,340C 458.5,340.667 444.5,340.667 430.5,340C 424.628,333.775 425.295,328.442 432.5,324C 441.827,323.5 451.161,323.334 460.5,323.5C 460.334,313.828 460.5,304.161 461,294.5C 462.707,292.963 464.207,291.296 465.5,289.5 Z"/></g>
<g><path style="opacity:1" fill="#050505" d="M 39.5,306.5 C 49.8411,307.55 53.5078,313.216 50.5,323.5C 65.1705,323.333 79.8371,323.5 94.5,324C 100.507,325.672 102.673,329.505 101,335.5C 100.167,337.667 98.6667,339.167 96.5,340C 77.1667,340.667 57.8333,340.667 38.5,340C 35.8917,338.622 34.3917,336.455 34,333.5C 33.3333,326.5 33.3333,319.5 34,312.5C 35.3597,309.977 37.193,307.977 39.5,306.5 Z"/></g>
<g><path style="opacity:1" fill="#050606" d="M 126.5,323.5 C 132.842,323.334 139.175,323.5 145.5,324C 151.964,325.756 154.13,329.923 152,336.5C 150.786,338.049 149.286,339.215 147.5,340C 139.5,340.667 131.5,340.667 123.5,340C 117.46,333.127 118.46,327.627 126.5,323.5 Z"/></g>
</svg>
