<?xml version="1.0" encoding="UTF-8"?>
<!DOCTYPE svg PUBLIC "-//W3C//DTD SVG 1.1//EN" "http://www.w3.org/Graphics/SVG/1.1/DTD/svg11.dtd">
<svg xmlns="http://www.w3.org/2000/svg" version="1.1" width="512px" height="512px" style="shape-rendering:geometricPrecision; text-rendering:geometricPrecision; image-rendering:optimizeQuality; fill-rule:evenodd; clip-rule:evenodd" xmlns:xlink="http://www.w3.org/1999/xlink">
<g><path style="opacity:0.974" fill="#020200" d="M 454.5,120.5 C 453.334,124.315 450.667,126.315 446.5,126.5C 437.552,125.123 428.552,124.456 419.5,124.5C 417.663,143.348 411.663,160.681 401.5,176.5C 399.495,177.254 398.828,178.421 399.5,180C 415.357,188.347 429.357,199.18 441.5,212.5C 464.747,195.584 482.08,173.917 493.5,147.5C 494.791,146.458 494.791,145.292 493.5,144C 485.5,140.333 477.5,136.667 469.5,133C 467.821,130.435 467.154,127.602 467.5,124.5C 468.997,121.491 471.497,119.824 475,119.5C 487.955,124.085 500.122,130.085 511.5,137.5C 511.5,140.5 511.5,143.5 511.5,146.5C 498.704,177.972 478.704,203.972 451.5,224.5C 482.83,269.316 491.996,318.316 479,371.5C 477.15,374.841 474.317,376.174 470.5,375.5C 466.62,374.282 464.62,371.615 464.5,367.5C 478.881,304.151 462.214,250.651 414.5,207C 387.053,184.963 355.72,174.963 320.5,177C 269.355,185.806 235.855,214.973 220,264.5C 207.461,313.556 215.461,358.889 244,400.5C 266.503,430.841 296.336,449.674 333.5,457C 384.89,461.637 424.224,442.303 451.5,399C 454.454,397.281 457.454,397.115 460.5,398.5C 463.538,400.251 464.705,402.917 464,406.5C 449.503,432.33 428.67,451.163 401.5,463C 379.657,470.837 357.324,476.837 334.5,481C 280.628,485.494 235.128,468.327 198,429.5C 194.167,424.5 190.333,419.5 186.5,414.5C 172.46,411.824 161.46,404.658 153.5,393C 128.538,392.209 104.705,386.709 82,376.5C 48.2073,385.104 25.2073,373.104 13,340.5C 10.6852,329.854 11.1852,319.354 14.5,309C 6.92691,292.461 1.92691,275.295 -0.5,257.5C -0.5,245.167 -0.5,232.833 -0.5,220.5C 6.20065,170.6 27.2007,127.766 62.5,92C 66.09,90.1777 69.7567,90.0111 73.5,91.5C 75.0971,94.3188 75.5971,97.3188 75,100.5C 45.2665,129.954 25.9331,165.287 17,206.5C 10.0838,241.903 14.5838,275.736 30.5,308C 22.7427,326.115 25.7427,342.115 39.5,356C 52.9197,365.547 67.253,367.047 82.5,360.5C 102.558,370.964 123.891,376.298 146.5,376.5C 143.763,360.89 147.596,347.224 158,335.5C 156.127,268.894 183.294,218.227 239.5,183.5C 255.214,175.04 271.88,169.373 289.5,166.5C 281.811,137.609 287.311,111.609 306,88.5C 311.833,81.3333 318.333,74.8333 325.5,69C 311.603,55.9882 295.77,53.1549 278,60.5C 240.837,43.2113 202.337,39.7113 162.5,50C 146.447,54.3672 131.447,60.8672 117.5,69.5C 112.029,72.4034 106.696,75.57 101.5,79C 99.8333,79.6667 98.1667,79.6667 96.5,79C 95.3066,77.9054 93.9733,77.072 92.5,76.5C 91.4448,73.9272 91.2782,71.2605 92,68.5C 141.999,31.9005 197.166,21.0672 257.5,36C 264.825,38.4416 271.992,41.2749 279,44.5C 301.606,37.5377 321.106,42.5377 337.5,59.5C 356.094,47.872 376.094,39.5387 397.5,34.5C 399.593,34.4858 401.426,35.1524 403,36.5C 413.544,59.3419 419.377,83.3419 420.5,108.5C 430.239,109.037 439.906,110.204 449.5,112C 453.089,113.674 454.755,116.507 454.5,120.5 Z"/></g>
<g><path style="opacity:1" fill="#f4cd30" d="M 239.5,183.5 C 180.92,201.249 146.087,240.249 135,300.5C 134.711,314.539 134.545,328.539 134.5,342.5C 89.176,319.3 63.0093,282.3 56,231.5C 52.2588,168.033 72.7588,114.033 117.5,69.5C 131.447,60.8672 146.447,54.3672 162.5,50C 202.337,39.7113 240.837,43.2113 278,60.5C 295.77,53.1549 311.603,55.9882 325.5,69C 318.333,74.8333 311.833,81.3333 306,88.5C 287.311,111.609 281.811,137.609 289.5,166.5C 271.88,169.373 255.214,175.04 239.5,183.5 Z"/></g>
<g><path style="opacity:1" fill="#3f7925" d="M 393.5,52.5 C 374.672,88.8225 356.339,125.489 338.5,162.5C 328.266,162.187 318.099,162.853 308,164.5C 306.564,164.441 305.231,164.108 304,163.5C 300.365,148.713 300.699,134.046 305,119.5C 312.096,103.063 322.93,89.5631 337.5,79C 353.387,67.3886 370.72,58.3886 389.5,52C 391.066,51.235 392.399,51.4017 393.5,52.5 Z"/></g>
<g><path style="opacity:1" fill="#56a432" d="M 393.5,52.5 C 406.29,85.329 407.79,118.662 398,152.5C 395.507,158.157 392.507,163.49 389,168.5C 387.611,170.227 385.944,171.561 384,172.5C 369.406,166.628 354.239,163.295 338.5,162.5C 356.339,125.489 374.672,88.8225 393.5,52.5 Z"/></g>
<g><path style="opacity:1" fill="#0c0902" d="M 190.5,62.5 C 199.037,62.2006 202.871,66.2006 202,74.5C 199.596,79.9528 195.429,82.1195 189.5,81C 184.78,77.7015 183.28,73.2015 185,67.5C 186.73,65.5981 188.563,63.9314 190.5,62.5 Z"/></g>
<g><path style="opacity:1" fill="#ceae29" d="M 117.5,69.5 C 72.7588,114.033 52.2588,168.033 56,231.5C 63.0093,282.3 89.176,319.3 134.5,342.5C 134.545,328.539 134.711,314.539 135,300.5C 146.087,240.249 180.92,201.249 239.5,183.5C 183.294,218.227 156.127,268.894 158,335.5C 147.596,347.224 143.763,360.89 146.5,376.5C 123.891,376.298 102.558,370.964 82.5,360.5C 67.253,367.047 52.9197,365.547 39.5,356C 25.7427,342.115 22.7427,326.115 30.5,308C 14.5838,275.736 10.0838,241.903 17,206.5C 25.9331,165.287 45.2665,129.954 75,100.5C 75.5971,97.3188 75.0971,94.3188 73.5,91.5C 79.5459,86.119 85.8792,81.119 92.5,76.5C 93.9733,77.072 95.3066,77.9054 96.5,79C 98.1667,79.6667 99.8333,79.6667 101.5,79C 106.696,75.57 112.029,72.4034 117.5,69.5 Z"/></g>
<g><path style="opacity:1" fill="#0b0802" d="M 149.5,81.5 C 159.781,81.1087 163.614,85.7753 161,95.5C 157.604,99.2027 153.437,100.369 148.5,99C 141.642,92.6759 141.976,86.8426 149.5,81.5 Z"/></g>
<g><path style="opacity:1" fill="#0a0702" d="M 214.5,84.5 C 225.661,85.1592 228.827,90.4926 224,100.5C 217.838,105.134 212.838,104.134 209,97.5C 208.333,94.8333 208.333,92.1667 209,89.5C 210.73,87.5981 212.563,85.9314 214.5,84.5 Z"/></g>
<g><path style="opacity:1" fill="#060401" d="M 173.5,107.5 C 183.659,106.158 187.826,110.491 186,120.5C 179.833,127.412 174.167,127.079 169,119.5C 168.333,117.167 168.333,114.833 169,112.5C 170.366,110.638 171.866,108.972 173.5,107.5 Z"/></g>
<g><path style="opacity:1" fill="#3f7925" d="M 454.5,120.5 C 458.833,121.833 463.167,123.167 467.5,124.5C 467.154,127.602 467.821,130.435 469.5,133C 477.5,136.667 485.5,140.333 493.5,144C 494.791,145.292 494.791,146.458 493.5,147.5C 492.399,146.402 491.066,146.235 489.5,147C 460.095,156.746 430.762,166.579 401.5,176.5C 411.663,160.681 417.663,143.348 419.5,124.5C 428.552,124.456 437.552,125.123 446.5,126.5C 450.667,126.315 453.334,124.315 454.5,120.5 Z"/></g>
<g><path style="opacity:1" fill="#56a432" d="M 493.5,147.5 C 482.08,173.917 464.747,195.584 441.5,212.5C 429.357,199.18 415.357,188.347 399.5,180C 398.828,178.421 399.495,177.254 401.5,176.5C 430.762,166.579 460.095,156.746 489.5,147C 491.066,146.235 492.399,146.402 493.5,147.5 Z"/></g>
<g><path style="opacity:1" fill="#f1cb33" d="M 470.5,375.5 C 467.556,383.332 464.222,390.998 460.5,398.5C 457.454,397.115 454.454,397.281 451.5,399C 424.224,442.303 384.89,461.637 333.5,457C 296.336,449.674 266.503,430.841 244,400.5C 215.461,358.889 207.461,313.556 220,264.5C 235.855,214.973 269.355,185.806 320.5,177C 355.72,174.963 387.053,184.963 414.5,207C 462.214,250.651 478.881,304.151 464.5,367.5C 464.62,371.615 466.62,374.282 470.5,375.5 Z"/></g>
<g><path style="opacity:1" fill="#fcf3d4" d="M 322.5,186.5 C 384.913,186.95 428.079,215.95 452,273.5C 467.16,315.231 464.16,355.564 443,394.5C 416.168,435.324 378.335,452.491 329.5,446C 284.183,434.687 252.35,407.52 234,364.5C 216.335,321.101 219.002,279.101 242,238.5C 261.09,209.204 287.923,191.87 322.5,186.5 Z"/></g>
<g><path style="opacity:1" fill="#040301" d="M 271.5,234.5 C 273.293,237.259 273.793,240.259 273,243.5C 270.333,247.5 267.667,251.5 265,255.5C 264.333,256.833 264.333,258.167 265,259.5C 284.251,271.542 303.418,283.708 322.5,296C 325.906,297.24 327.573,296.073 327.5,292.5C 320.837,268.678 313.67,245.012 306,221.5C 304.612,220.446 303.112,220.28 301.5,221C 297.204,223.639 292.704,225.805 288,227.5C 285.489,227.16 283.322,226.16 281.5,224.5C 281.336,221.813 281.503,219.146 282,216.5C 289.993,208.921 299.493,205.421 310.5,206C 312.984,203.256 315.984,201.256 319.5,200C 340.83,197.475 361.163,200.808 380.5,210C 384.026,212.026 386.693,214.859 388.5,218.5C 394.993,219.747 400.66,222.58 405.5,227C 422.074,242.235 433.741,260.568 440.5,282C 440.352,283.707 440.018,285.374 439.5,287C 441.786,290.4 443.952,293.9 446,297.5C 453.318,335.26 445.985,369.593 424,400.5C 414.561,411.622 403.394,420.455 390.5,427C 385.584,428.161 380.584,428.827 375.5,429C 373.17,431.167 370.503,432.834 367.5,434C 342.862,438.406 319.862,434.072 298.5,421C 273.818,405.537 256.318,384.037 246,356.5C 245.259,353.438 245.425,350.438 246.5,347.5C 243.704,344.204 241.537,340.537 240,336.5C 236.431,316.429 236.765,296.429 241,276.5C 242.059,270.707 244.893,266.041 249.5,262.5C 250.325,258.878 250.825,255.211 251,251.5C 253.876,245.577 257.376,240.077 261.5,235C 264.753,233.18 268.087,233.013 271.5,234.5 Z"/></g>
<g><path style="opacity:1" fill="#f1ca30" d="M 241.5,198.5 C 242.239,198.369 242.906,198.536 243.5,199C 211.66,231.168 197.16,270.002 200,315.5C 203.357,365.711 223.857,407.211 261.5,440C 276.03,451.267 292.03,459.934 309.5,466C 260.805,462.989 222.805,441.322 195.5,401C 171.185,397.694 159.685,383.861 161,359.5C 163.005,352.172 166.672,345.838 172,340.5C 168.806,279.892 191.973,232.559 241.5,198.5 Z"/></g>
<g><path style="opacity:1" fill="#f2cc30" d="M 323.5,213.5 C 341.097,211.948 357.763,215.114 373.5,223C 374.574,223.739 375.241,224.739 375.5,226C 366.082,247.498 356.416,268.831 346.5,290C 344.567,290.783 343.067,290.283 342,288.5C 334.732,264.863 327.566,241.197 320.5,217.5C 320.787,215.557 321.787,214.223 323.5,213.5 Z"/></g>
<g><path style="opacity:1" fill="#f1cb30" d="M 271.5,234.5 C 275.167,231.5 278.5,228.167 281.5,224.5C 283.322,226.16 285.489,227.16 288,227.5C 292.704,225.805 297.204,223.639 301.5,221C 303.112,220.28 304.612,220.446 306,221.5C 313.67,245.012 320.837,268.678 327.5,292.5C 327.573,296.073 325.906,297.24 322.5,296C 303.418,283.708 284.251,271.542 265,259.5C 264.333,258.167 264.333,256.833 265,255.5C 267.667,251.5 270.333,247.5 273,243.5C 273.793,240.259 273.293,237.259 271.5,234.5 Z"/></g>
<g><path style="opacity:1" fill="#f2cc30" d="M 387.5,234.5 C 389.199,234.34 390.866,234.506 392.5,235C 406.878,247.262 417.712,262.095 425,279.5C 425.667,281.167 425.667,282.833 425,284.5C 406.194,290.324 387.361,296.157 368.5,302C 365.558,303.124 362.558,303.458 359.5,303C 358.446,301.612 358.28,300.112 359,298.5C 368.787,277.263 378.287,255.93 387.5,234.5 Z"/></g>
<g><path style="opacity:1" fill="#f1ca30" d="M 257.5,273.5 C 279.265,285.412 300.432,298.412 321,312.5C 321.667,313.5 321.667,314.5 321,315.5C 300.72,322.368 280.22,328.868 259.5,335C 257.299,335.825 255.466,335.325 254,333.5C 251.196,318.549 250.863,303.549 253,288.5C 254.009,283.311 255.509,278.311 257.5,273.5 Z"/></g>
<g><path style="opacity:1" fill="#f0ca30" d="M 424.5,299.5 C 427.365,299.055 429.865,299.722 432,301.5C 436.249,321.39 435.082,340.89 428.5,360C 425.581,360.552 422.914,359.885 420.5,358C 402.085,346.042 383.585,334.209 365,322.5C 364.439,319.702 365.606,317.869 368.5,317C 387.379,311.454 406.045,305.621 424.5,299.5 Z"/></g>
<g><path style="opacity:1" fill="#f1cb33" d="M 336.5,303.5 C 350.421,302.983 356.255,309.649 354,323.5C 350.877,329.996 345.71,332.496 338.5,331C 330.587,326.334 327.754,319.501 330,310.5C 331.694,307.642 333.861,305.309 336.5,303.5 Z"/></g>
<g><path style="opacity:1" fill="#f1ca30" d="M 322.5,330.5 C 326,330.495 327.5,332.162 327,335.5C 317.472,356.417 308.139,377.417 299,398.5C 297.867,400.211 296.367,400.711 294.5,400C 277.633,387.172 266.466,370.672 261,350.5C 281.482,343.505 301.982,336.839 322.5,330.5 Z"/></g>
<g><path style="opacity:1" fill="#f2cb30" d="M 358.5,338.5 C 360.989,338.298 363.323,338.798 365.5,340C 383.667,351.5 401.833,363 420,374.5C 420.667,376.5 420.667,378.5 420,380.5C 411.398,395.103 399.564,406.269 384.5,414C 382.888,414.72 381.388,414.554 380,413.5C 371.911,388.736 364.744,363.736 358.5,338.5 Z"/></g>
<g><path style="opacity:1" fill="#f0ca30" d="M 339.5,344.5 C 341.144,344.286 342.644,344.62 344,345.5C 351.37,369.276 358.536,393.109 365.5,417C 365.245,418.326 364.578,419.326 363.5,420C 344.057,423.468 326.057,419.968 309.5,409.5C 319.257,387.657 329.257,365.99 339.5,344.5 Z"/></g>
</svg>
