<?xml version="1.0" encoding="UTF-8"?>
<!DOCTYPE svg PUBLIC "-//W3C//DTD SVG 1.1//EN" "http://www.w3.org/Graphics/SVG/1.1/DTD/svg11.dtd">
<svg xmlns="http://www.w3.org/2000/svg" version="1.1" width="512px" height="512px" style="shape-rendering:geometricPrecision; text-rendering:geometricPrecision; image-rendering:optimizeQuality; fill-rule:evenodd; clip-rule:evenodd" xmlns:xlink="http://www.w3.org/1999/xlink">
<g><path style="opacity:0.949" fill="#3a312a" d="M 118.5,-0.5 C 120.167,-0.5 121.833,-0.5 123.5,-0.5C 126.087,7.51139 130.753,14.0114 137.5,19C 139.788,19.8221 142.122,20.4888 144.5,21C 147.167,23.3333 147.167,25.6667 144.5,28C 133.817,31.5138 127.15,38.6805 124.5,49.5C 122.305,50.7691 120.139,50.7691 118,49.5C 116.693,42.0479 113.193,35.8813 107.5,31C 104.754,29.2503 101.754,28.2503 98.5,28C 95.8333,25.6667 95.8333,23.3333 98.5,21C 110.508,18.8251 117.174,11.6584 118.5,-0.5 Z"/></g>
<g><path style="opacity:0.981" fill="#3a322a" d="M 235.5,-0.5 C 288.833,-0.5 342.167,-0.5 395.5,-0.5C 396.11,0.391047 396.443,1.39105 396.5,2.5C 396.489,4.01739 395.823,5.18405 394.5,6C 341.833,6.33333 289.167,6.66667 236.5,7C 228.708,9.95039 224.042,15.4504 222.5,23.5C 221.508,30.6476 221.175,37.9809 221.5,45.5C 298.167,45.5 374.833,45.5 451.5,45.5C 461.167,45.5 470.833,45.5 480.5,45.5C 480.666,37.4931 480.5,29.4931 480,21.5C 477.833,14 473,9.16667 465.5,7C 455.839,6.5002 446.172,6.33353 436.5,6.5C 432.818,6.6653 429.152,6.49863 425.5,6C 424.695,4.88732 424.028,3.72065 423.5,2.5C 423.557,1.39105 423.89,0.391047 424.5,-0.5C 438.833,-0.5 453.167,-0.5 467.5,-0.5C 477.577,3.0805 484.077,10.0805 487,20.5C 487.333,29.8333 487.667,39.1667 488,48.5C 495.709,81.6623 503.542,114.662 511.5,147.5C 511.5,259.5 511.5,371.5 511.5,483.5C 507.158,497.842 497.825,507.175 483.5,511.5C 395.167,511.5 306.833,511.5 218.5,511.5C 203.359,506.6 194.192,496.266 191,480.5C 190.333,402.5 190.333,324.5 191,246.5C 191.816,245.177 192.983,244.511 194.5,244.5C 195.9,245.1 196.9,246.1 197.5,247.5C 197.5,257.167 197.5,266.833 197.5,276.5C 300.001,276.833 402.335,276.499 504.5,275.5C 504.5,235.167 504.5,194.833 504.5,154.5C 494.833,154.5 485.167,154.5 475.5,154.5C 382.833,154.5 290.167,154.5 197.5,154.5C 197.5,174.167 197.5,193.833 197.5,213.5C 197.19,215.144 196.19,216.144 194.5,216.5C 192.876,216.64 191.71,215.973 191,214.5C 190.333,192.5 190.333,170.5 191,148.5C 198.667,115.833 206.333,83.1667 214,50.5C 214.097,39.7753 214.763,29.1086 216,18.5C 219.748,9.25079 226.248,2.91746 235.5,-0.5 Z"/></g>
<g><path style="opacity:0.999" fill="#d6df56" d="M 396.5,2.5 C 405.5,2.5 414.5,2.5 423.5,2.5C 424.028,3.72065 424.695,4.88732 425.5,6C 429.152,6.49863 432.818,6.6653 436.5,6.5C 443.393,8.89027 448.226,13.5569 451,20.5C 451.5,28.4931 451.666,36.4931 451.5,44.5C 375.167,44.5 298.833,44.5 222.5,44.5C 222.5,37.5 222.5,30.5 222.5,23.5C 224.042,15.4504 228.708,9.95039 236.5,7C 289.167,6.66667 341.833,6.33333 394.5,6C 395.823,5.18405 396.489,4.01739 396.5,2.5 Z"/></g>
<g><path style="opacity:1" fill="#b8bb39" d="M 436.5,6.5 C 446.172,6.33353 455.839,6.5002 465.5,7C 473,9.16667 477.833,14 480,21.5C 480.5,29.4931 480.666,37.4931 480.5,45.5C 470.833,45.5 461.167,45.5 451.5,45.5C 451.5,45.1667 451.5,44.8333 451.5,44.5C 451.666,36.4931 451.5,28.4931 451,20.5C 448.226,13.5569 443.393,8.89027 436.5,6.5 Z"/></g>
<g><path style="opacity:1" fill="#d0d855" d="M 121.5,13.5 C 124.592,17.8218 128.259,21.6551 132.5,25C 128.353,27.9804 124.686,31.4804 121.5,35.5C 118.868,31.2659 115.534,27.5992 111.5,24.5C 115.566,21.4372 118.899,17.7706 121.5,13.5 Z"/></g>
<g><path style="opacity:0.947" fill="#3a322a" d="M 167.5,21.5 C 169.792,21.2436 171.959,21.5769 174,22.5C 177.904,38.4045 187.738,48.2378 203.5,52C 204.833,54 204.833,56 203.5,58C 190.26,61.9129 180.76,70.0795 175,82.5C 175.353,86.5521 173.853,89.5521 170.5,91.5C 169.252,90.9598 168.085,90.2931 167,89.5C 165.204,81.4357 161.871,74.1023 157,67.5C 152.151,62.6589 146.318,59.8255 139.5,59C 137.352,56.9251 137.018,54.5918 138.5,52C 155.556,48.7792 165.222,38.6125 167.5,21.5 Z"/></g>
<g><path style="opacity:0.964" fill="#3b322a" d="M 46.5,36.5 C 52.4765,36.071 56.9765,38.4044 60,43.5C 98.7285,121.957 137.728,200.29 177,278.5C 178.214,283.343 177.047,287.51 173.5,291C 160.167,297.667 146.833,304.333 133.5,311C 128.243,312.426 123.743,311.259 120,307.5C 80.6667,228.833 41.3333,150.167 2,71.5C 1.33333,68.1667 1.33333,64.8333 2,61.5C 2.46524,60.0692 3.29857,58.9025 4.5,58C 18.436,50.5328 32.436,43.3662 46.5,36.5 Z"/></g>
<g><path style="opacity:1" fill="#d3db55" d="M 170.5,37.5 C 174.448,42.4706 178.781,47.3039 183.5,52C 185.5,53.3333 187.5,54.6667 189.5,56C 181.398,60.4696 174.898,66.6362 170,74.5C 166.319,66.4833 160.819,59.9833 153.5,55C 161.384,51.2827 167.051,45.4494 170.5,37.5 Z"/></g>
<g><path style="opacity:1" fill="#d4dd56" d="M 48.5,43.5 C 50.0898,43.6282 51.4231,44.2949 52.5,45.5C 55,50.5 57.5,55.5 60,60.5C 60.7494,61.635 60.5827,62.635 59.5,63.5C 45.5,70.5 31.5,77.5 17.5,84.5C 13.2353,78.3194 10.402,71.6528 9,64.5C 22.149,57.3438 35.3156,50.3438 48.5,43.5 Z"/></g>
<g><path style="opacity:1" fill="#c8ce52" d="M 222.5,23.5 C 222.5,30.5 222.5,37.5 222.5,44.5C 298.833,44.5 375.167,44.5 451.5,44.5C 451.5,44.8333 451.5,45.1667 451.5,45.5C 374.833,45.5 298.167,45.5 221.5,45.5C 221.175,37.9809 221.508,30.6476 222.5,23.5 Z"/></g>
<g><path style="opacity:1" fill="#d6df56" d="M 452.5,52.5 C 460.258,84.0987 467.591,115.765 474.5,147.5C 382.494,148.164 290.827,147.498 199.5,145.5C 206.37,114.486 213.37,83.4863 220.5,52.5C 297.833,52.5 375.167,52.5 452.5,52.5 Z"/></g>
<g><path style="opacity:1" fill="#b8bb39" d="M 452.5,52.5 C 462.416,52.181 472.25,52.5144 482,53.5C 489.486,84.7773 496.653,116.111 503.5,147.5C 493.833,147.5 484.167,147.5 474.5,147.5C 467.591,115.765 460.258,84.0987 452.5,52.5 Z"/></g>
<g><path style="opacity:0.957" fill="#3a312a" d="M 119.5,59.5 C 121.722,59.178 123.556,59.8446 125,61.5C 127.869,72.3687 134.702,79.202 145.5,82C 146.935,84.2672 146.602,86.2672 144.5,88C 133.419,91.7425 126.586,99.2425 124,110.5C 121.733,111.935 119.733,111.602 118,109.5C 115.915,97.6143 109.082,90.281 97.5,87.5C 96.1667,85.8333 96.1667,84.1667 97.5,82.5C 109.696,79.3079 117.029,71.6412 119.5,59.5 Z"/></g>
<g><path style="opacity:1" fill="#ef6b79" d="M 62.5,69.5 C 63.4959,69.4142 64.3292,69.7476 65,70.5C 96.1075,132.382 126.941,194.382 157.5,256.5C 157.167,257.167 156.833,257.833 156.5,258.5C 142.5,265.5 128.5,272.5 114.5,279.5C 83.1822,216.864 51.8489,154.198 20.5,91.5C 34.4055,83.9767 48.4055,76.6434 62.5,69.5 Z"/></g>
<g><path style="opacity:1" fill="#d0d855" d="M 121.5,74.5 C 124.812,78.479 128.479,82.1456 132.5,85.5C 128.103,88.6081 124.27,92.2748 121,96.5C 118.588,92.0841 115.422,88.2508 111.5,85C 115.712,82.2889 119.046,78.7889 121.5,74.5 Z"/></g>
<g><path style="opacity:1" fill="#7b793b" d="M 199.5,145.5 C 290.827,147.498 382.494,148.164 474.5,147.5C 484.167,147.5 493.833,147.5 503.5,147.5C 402.001,148.499 300.335,148.833 198.5,148.5C 198.263,147.209 198.596,146.209 199.5,145.5 Z"/></g>
<g><path style="opacity:1" fill="#6c8e9a" d="M 475.5,154.5 C 475.5,154.833 475.5,155.167 475.5,155.5C 383.167,155.5 290.833,155.5 198.5,155.5C 198.83,175.007 198.497,194.341 197.5,213.5C 197.5,193.833 197.5,174.167 197.5,154.5C 290.167,154.5 382.833,154.5 475.5,154.5 Z"/></g>
<g><path style="opacity:1" fill="#89c5dc" d="M 475.5,155.5 C 475.5,195.5 475.5,235.5 475.5,275.5C 383.167,275.5 290.833,275.5 198.5,275.5C 198.827,265.985 198.494,256.652 197.5,247.5C 196.9,246.1 195.9,245.1 194.5,244.5C 194.5,235.167 194.5,225.833 194.5,216.5C 196.19,216.144 197.19,215.144 197.5,213.5C 198.497,194.341 198.83,175.007 198.5,155.5C 290.833,155.5 383.167,155.5 475.5,155.5 Z"/></g>
<g><path style="opacity:1" fill="#68a8bc" d="M 475.5,154.5 C 485.167,154.5 494.833,154.5 504.5,154.5C 504.5,194.833 504.5,235.167 504.5,275.5C 494.833,275.5 485.167,275.5 475.5,275.5C 475.5,235.5 475.5,195.5 475.5,155.5C 475.5,155.167 475.5,154.833 475.5,154.5 Z"/></g>
<g><path style="opacity:0.964" fill="#3c322a" d="M 46.5,223.5 C 52.386,222.343 57.2193,224.01 61,228.5C 86,312.5 111,396.5 136,480.5C 137.653,486.378 136.153,491.212 131.5,495C 116.399,499.733 101.233,504.233 86,508.5C 82.545,508.129 79.545,506.795 77,504.5C 51.266,419.964 25.9327,335.297 1,250.5C -0.42611,245.243 0.740556,240.743 4.5,237C 18.6074,232.481 32.6074,227.981 46.5,223.5 Z"/></g>
<g><path style="opacity:1" fill="#d4dc56" d="M 47.5,230.5 C 49.7925,230.244 51.9592,230.577 54,231.5C 56.7726,237.925 58.606,244.592 59.5,251.5C 43.8711,255.99 28.2045,260.324 12.5,264.5C 10.9646,258.167 9.29796,251.833 7.5,245.5C 7.83333,244.833 8.16667,244.167 8.5,243.5C 21.554,238.995 34.554,234.662 47.5,230.5 Z"/></g>
<g><path style="opacity:1" fill="#ef6b79" d="M 60.5,257.5 C 61.4972,257.47 62.1639,257.97 62.5,259C 82.3995,325.098 102.066,391.265 121.5,457.5C 121.392,458.442 121.059,459.275 120.5,460C 105.338,465.066 90.0043,469.566 74.5,473.5C 55.1462,406.602 35.4795,339.769 15.5,273C 15.6448,272.228 15.9781,271.561 16.5,271C 31.3777,266.787 46.0444,262.287 60.5,257.5 Z"/></g>
<g><path style="opacity:1" fill="#d3db56" d="M 159.5,264.5 C 161.017,264.511 162.184,265.177 163,266.5C 166.228,271.936 168.562,277.602 170,283.5C 156.8,291.684 142.966,298.684 128.5,304.5C 127.833,304.167 127.167,303.833 126.5,303.5C 122.804,297.78 119.97,291.78 118,285.5C 131.848,278.327 145.681,271.327 159.5,264.5 Z"/></g>
<g><path style="opacity:1" fill="#525e60" d="M 197.5,247.5 C 198.494,256.652 198.827,265.985 198.5,275.5C 290.833,275.5 383.167,275.5 475.5,275.5C 485.167,275.5 494.833,275.5 504.5,275.5C 402.335,276.499 300.001,276.833 197.5,276.5C 197.5,266.833 197.5,257.167 197.5,247.5 Z"/></g>
<g><path style="opacity:1" fill="#fae6c9" d="M 198.5,282.5 C 290.833,282.5 383.167,282.5 475.5,282.5C 475.5,314.167 475.5,345.833 475.5,377.5C 383.167,377.5 290.833,377.5 198.5,377.5C 198.5,345.833 198.5,314.167 198.5,282.5 Z"/></g>
<g><path style="opacity:1" fill="#ccae8b" d="M 475.5,282.5 C 485.167,282.5 494.833,282.5 504.5,282.5C 504.5,314.5 504.5,346.5 504.5,378.5C 494.833,378.5 485.167,378.5 475.5,378.5C 475.5,378.167 475.5,377.833 475.5,377.5C 475.5,345.833 475.5,314.167 475.5,282.5 Z"/></g>
<g><path style="opacity:1" fill="#3d342c" d="M 252.5,299.5 C 259.2,299.17 265.866,299.503 272.5,300.5C 276.961,314.347 280.795,328.347 284,342.5C 287.181,328.286 291.181,314.286 296,300.5C 302.41,299.522 308.91,299.189 315.5,299.5C 316.906,320.479 317.906,341.479 318.5,362.5C 313.833,362.5 309.167,362.5 304.5,362.5C 304.384,345.823 303.884,329.157 303,312.5C 298.007,328.807 293.174,345.14 288.5,361.5C 284.563,361.793 280.73,361.46 277,360.5C 272.242,344.716 268.242,328.716 265,312.5C 263.343,329.112 262.51,345.778 262.5,362.5C 258.167,362.5 253.833,362.5 249.5,362.5C 250.79,341.518 251.79,320.518 252.5,299.5 Z"/></g>
<g><path style="opacity:1" fill="#6d6154" d="M 329.5,299.5 C 329.833,299.5 330.167,299.5 330.5,299.5C 330.5,320.167 330.5,340.833 330.5,361.5C 334.833,361.5 339.167,361.5 343.5,361.5C 343.5,361.833 343.5,362.167 343.5,362.5C 338.833,362.5 334.167,362.5 329.5,362.5C 329.5,341.5 329.5,320.5 329.5,299.5 Z"/></g>
<g><path style="opacity:1" fill="#393129" d="M 330.5,299.5 C 334.833,299.5 339.167,299.5 343.5,299.5C 343.5,320.167 343.5,340.833 343.5,361.5C 339.167,361.5 334.833,361.5 330.5,361.5C 330.5,340.833 330.5,320.167 330.5,299.5 Z"/></g>
<g><path style="opacity:1" fill="#897b6b" d="M 329.5,299.5 C 334.305,298.513 339.305,298.179 344.5,298.5C 344.831,320.007 344.497,341.34 343.5,362.5C 343.5,362.167 343.5,361.833 343.5,361.5C 343.5,340.833 343.5,320.167 343.5,299.5C 339.167,299.5 334.833,299.5 330.5,299.5C 330.167,299.5 329.833,299.5 329.5,299.5 Z"/></g>
<g><path style="opacity:1" fill="#393129" d="M 370.5,299.5 C 370.5,316.5 370.5,333.5 370.5,350.5C 378.833,350.5 387.167,350.5 395.5,350.5C 395.5,354.167 395.5,357.833 395.5,361.5C 382.5,361.5 369.5,361.5 356.5,361.5C 356.5,340.833 356.5,320.167 356.5,299.5C 361.167,299.5 365.833,299.5 370.5,299.5 Z"/></g>
<g><path style="opacity:1" fill="#bdad96" d="M 370.5,299.5 C 371.497,315.992 371.83,332.658 371.5,349.5C 379.684,349.174 387.684,349.508 395.5,350.5C 387.167,350.5 378.833,350.5 370.5,350.5C 370.5,333.5 370.5,316.5 370.5,299.5 Z"/></g>
<g><path style="opacity:1" fill="#3b322b" d="M 404.5,299.5 C 409.167,299.5 413.833,299.5 418.5,299.5C 418.334,308.506 418.5,317.506 419,326.5C 425.029,317.97 430.863,309.303 436.5,300.5C 442.472,299.336 448.472,299.17 454.5,300C 447.586,308.504 440.919,317.171 434.5,326C 441.619,337.735 448.619,349.568 455.5,361.5C 450.198,362.663 444.864,362.829 439.5,362C 434.712,352.92 429.545,344.087 424,335.5C 421.957,337.208 420.29,339.208 419,341.5C 418.5,348.492 418.334,355.492 418.5,362.5C 413.833,362.5 409.167,362.5 404.5,362.5C 404.5,341.5 404.5,320.5 404.5,299.5 Z"/></g>
<g><path style="opacity:1" fill="#716557" d="M 395.5,350.5 C 396.483,354.298 396.817,358.298 396.5,362.5C 382.99,362.829 369.656,362.496 356.5,361.5C 369.5,361.5 382.5,361.5 395.5,361.5C 395.5,357.833 395.5,354.167 395.5,350.5 Z"/></g>
<g><path style="opacity:1" fill="#c1b09a" d="M 198.5,282.5 C 198.5,314.167 198.5,345.833 198.5,377.5C 290.833,377.5 383.167,377.5 475.5,377.5C 475.5,377.833 475.5,378.167 475.5,378.5C 382.833,378.5 290.167,378.5 197.5,378.5C 197.168,346.329 197.502,314.329 198.5,282.5 Z"/></g>
<g><path style="opacity:1" fill="#607a82" d="M 504.5,385.5 C 494.833,385.5 485.167,385.5 475.5,385.5C 383.167,385.5 290.833,385.5 198.5,385.5C 198.5,416.833 198.5,448.167 198.5,479.5C 197.502,448.004 197.168,416.338 197.5,384.5C 300.001,384.167 402.335,384.501 504.5,385.5 Z"/></g>
<g><path style="opacity:1" fill="#89c5dc" d="M 475.5,385.5 C 475.667,417.835 475.5,450.168 475,482.5C 471.553,494.115 464.053,501.448 452.5,504.5C 375.166,504.667 297.833,504.5 220.5,504C 208.059,500.393 200.725,492.227 198.5,479.5C 198.5,448.167 198.5,416.833 198.5,385.5C 290.833,385.5 383.167,385.5 475.5,385.5 Z"/></g>
<g><path style="opacity:1" fill="#68a8bc" d="M 475.5,385.5 C 485.167,385.5 494.833,385.5 504.5,385.5C 504.972,418.882 504.472,452.216 503,485.5C 499.833,494 494,499.833 485.5,503C 474.578,504.431 463.578,504.931 452.5,504.5C 464.053,501.448 471.553,494.115 475,482.5C 475.5,450.168 475.667,417.835 475.5,385.5 Z"/></g>
<g><path style="opacity:1" fill="#d4dd56" d="M 121.5,466.5 C 123.124,466.36 124.29,467.027 125,468.5C 127.397,474.669 128.73,481.002 129,487.5C 119.267,490.855 109.433,494.022 99.5,497C 94.2967,498.971 88.9634,499.971 83.5,500C 80.6463,493.419 78.6463,486.586 77.5,479.5C 92.4924,475.944 107.159,471.61 121.5,466.5 Z"/></g>
</svg>
