<?xml version="1.0" encoding="UTF-8"?>
<!DOCTYPE svg PUBLIC "-//W3C//DTD SVG 1.1//EN" "http://www.w3.org/Graphics/SVG/1.1/DTD/svg11.dtd">
<svg xmlns="http://www.w3.org/2000/svg" version="1.1" width="512px" height="512px" style="shape-rendering:geometricPrecision; text-rendering:geometricPrecision; image-rendering:optimizeQuality; fill-rule:evenodd; clip-rule:evenodd" xmlns:xlink="http://www.w3.org/1999/xlink">
<g><path style="opacity:0.979" fill="#020202" d="M 144.5,-0.5 C 183.167,-0.5 221.833,-0.5 260.5,-0.5C 295.683,7.85214 316.85,29.8521 324,65.5C 324.333,103.833 324.667,142.167 325,180.5C 330.075,196.557 335.241,212.557 340.5,228.5C 356.623,213.879 372.289,198.712 387.5,183C 392.547,177.953 398.547,174.62 405.5,173C 416.833,172.333 428.167,172.333 439.5,173C 451.208,177.747 455.041,186.247 451,198.5C 436.217,234.067 420.884,269.4 405,304.5C 394.854,319.646 382.354,332.479 367.5,343C 373.855,386.029 357.855,417.362 319.5,437C 313.809,439.379 307.975,441.213 302,442.5C 303.703,449.27 306.036,455.937 309,462.5C 312.97,479.467 308.804,493.967 296.5,506C 292.525,508.146 288.525,509.98 284.5,511.5C 276.833,511.5 269.167,511.5 261.5,511.5C 242.055,509.214 222.388,508.214 202.5,508.5C 182.282,508.249 162.282,509.249 142.5,511.5C 135.167,511.5 127.833,511.5 120.5,511.5C 103.273,505.436 94.6068,493.103 94.5,474.5C 94.6735,470.459 95.1735,466.459 96,462.5C 99.5158,453.474 103.016,444.474 106.5,435.5C 109.622,428.888 110.955,421.888 110.5,414.5C 84.8269,409.66 69.6602,394.326 65,368.5C 64.4598,341.225 68.1264,314.558 76,288.5C 81.4999,274.165 91.6665,264.999 106.5,261C 126.556,261.055 145.889,257.389 164.5,250C 186.656,243.488 208.989,242.821 231.5,248C 244.404,252.08 257.404,255.747 270.5,259C 280.514,259.926 290.514,260.926 300.5,262C 316.94,267.334 327.107,278.501 331,295.5C 333.826,307.461 336.326,319.461 338.5,331.5C 339.509,345.486 339.676,359.486 339,373.5C 332.628,396.935 317.462,410.601 293.5,414.5C 293.825,418.947 294.658,423.28 296,427.5C 328.108,421.059 347.108,401.726 353,369.5C 353.19,357.495 353.19,345.495 353,333.5C 368.243,324.258 380.91,312.258 391,297.5C 407.05,262.067 422.55,226.4 437.5,190.5C 437.167,189.833 436.833,189.167 436.5,188.5C 427.008,187.178 417.675,187.178 408.5,188.5C 406.692,188.491 405.025,188.991 403.5,190C 382.469,210.698 361.136,231.032 339.5,251C 333.499,251.995 329.832,249.495 328.5,243.5C 322.441,223.487 316.274,203.487 310,183.5C 309.667,144.833 309.333,106.167 309,67.5C 301.878,35.5434 282.044,17.8767 249.5,14.5C 215.165,14.3333 180.832,14.5 146.5,15C 118.325,22.1736 101.492,40.0069 96,68.5C 95.6667,106.833 95.3333,145.167 95,183.5C 82.2624,223.713 69.929,264.046 58,304.5C 52.7162,327.947 51.0495,351.614 53,375.5C 56.6216,390.911 64.4549,403.744 76.5,414C 80.6149,416.448 84.4482,419.281 88,422.5C 88.2005,425.361 88.3672,428.028 88.5,430.5C 85.3221,433.22 81.6555,434.054 77.5,433C 44.5382,411.856 31.0382,381.689 37,342.5C 38.3792,324.558 41.3792,306.891 46,289.5C 57.3333,252.833 68.6667,216.167 80,179.5C 80.3333,141.167 80.6667,102.833 81,64.5C 85.6712,36.6647 100.838,16.8313 126.5,5C 132.531,2.83236 138.531,0.999023 144.5,-0.5 Z M 220.5,38.5 C 226.833,38.5 233.167,38.5 239.5,38.5C 240.001,41.1553 241.334,43.322 243.5,45C 258.892,45.4095 269.725,52.5762 276,66.5C 277.625,89.4497 277.958,112.45 277,135.5C 258.942,116.423 236.775,108.757 210.5,112.5C 210.666,107.821 210.499,103.155 210,98.5C 207.565,93.7762 203.731,92.2762 198.5,94C 197.333,95.1667 196.167,96.3333 195,97.5C 194.501,102.489 194.334,107.489 194.5,112.5C 168.225,108.757 146.058,116.423 128,135.5C 127.333,113.5 127.333,91.5 128,69.5C 131.5,58 139,50.5 150.5,47C 171.833,46.6667 193.167,46.3333 214.5,46C 218.518,45.1365 220.518,42.6365 220.5,38.5 Z"/></g>
<g><path style="opacity:1" fill="#ddf4fb" d="M 249.5,14.5 C 258.543,19.8778 266.209,26.8778 272.5,35.5C 272.043,36.2975 271.376,36.6309 270.5,36.5C 261.916,31.9469 252.916,30.4469 243.5,32C 241.752,34.0129 240.418,36.1795 239.5,38.5C 233.167,38.5 226.833,38.5 220.5,38.5C 220.518,34.3635 218.518,31.8635 214.5,31C 192.833,30.3333 171.167,30.3333 149.5,31C 129.218,36.2814 116.718,49.1147 112,69.5C 111.333,107.167 111.333,144.833 112,182.5C 113.167,185 115,186.833 117.5,188C 173.832,188.5 230.166,188.667 286.5,188.5C 287.75,188.577 288.583,189.244 289,190.5C 294.139,206.252 299.473,221.919 305,237.5C 306.938,240.106 309.438,241.939 312.5,243C 317.823,243.499 323.156,243.666 328.5,243.5C 329.832,249.495 333.499,251.995 339.5,251C 361.136,231.032 382.469,210.698 403.5,190C 405.025,188.991 406.692,188.491 408.5,188.5C 410.5,188.5 412.5,188.5 414.5,188.5C 414.186,191.947 413.352,195.28 412,198.5C 398.217,232.066 383.884,265.399 369,298.5C 360.693,311.303 350.527,322.303 338.5,331.5C 336.326,319.461 333.826,307.461 331,295.5C 327.107,278.501 316.94,267.334 300.5,262C 290.514,260.926 280.514,259.926 270.5,259C 257.404,255.747 244.404,252.08 231.5,248C 208.989,242.821 186.656,243.488 164.5,250C 145.889,257.389 126.556,261.055 106.5,261C 91.6665,264.999 81.4999,274.165 76,288.5C 68.1264,314.558 64.4598,341.225 65,368.5C 69.6602,394.326 84.8269,409.66 110.5,414.5C 110.955,421.888 109.622,428.888 106.5,435.5C 100.433,434.149 94.4326,432.483 88.5,430.5C 88.3672,428.028 88.2005,425.361 88,422.5C 84.4482,419.281 80.6149,416.448 76.5,414C 64.4549,403.744 56.6216,390.911 53,375.5C 51.0495,351.614 52.7162,327.947 58,304.5C 69.929,264.046 82.2624,223.713 95,183.5C 95.3333,145.167 95.6667,106.833 96,68.5C 101.492,40.0069 118.325,22.1736 146.5,15C 180.832,14.5 215.165,14.3333 249.5,14.5 Z"/></g>
<g><path style="opacity:1" fill="#c4ebf9" d="M 249.5,14.5 C 282.044,17.8767 301.878,35.5434 309,67.5C 309.333,106.167 309.667,144.833 310,183.5C 316.274,203.487 322.441,223.487 328.5,243.5C 323.156,243.666 317.823,243.499 312.5,243C 309.438,241.939 306.938,240.106 305,237.5C 299.473,221.919 294.139,206.252 289,190.5C 288.583,189.244 287.75,188.577 286.5,188.5C 289.788,187.374 291.955,185.04 293,181.5C 293.667,144.5 293.667,107.5 293,70.5C 290.433,55.7905 282.933,44.4572 270.5,36.5C 271.376,36.6309 272.043,36.2975 272.5,35.5C 266.209,26.8778 258.543,19.8778 249.5,14.5 Z"/></g>
<g><path style="opacity:0.92" fill="#000000" d="M 387.5,24.5 C 391.516,23.8999 395.016,24.8999 398,27.5C 399.014,32.5822 400.347,37.5822 402,42.5C 407.838,52.1795 414.172,61.5128 421,70.5C 433.235,90.7242 434.568,111.724 425,133.5C 422.091,140.324 418.424,146.658 414,152.5C 410.763,156.249 406.93,157.082 402.5,155C 400.236,153.221 398.903,150.887 398.5,148C 403.041,140.42 407.208,132.587 411,124.5C 417.534,109.308 416.534,94.6417 408,80.5C 398.718,69.2079 391.051,56.8746 385,43.5C 383.582,38.5715 383.249,33.5715 384,28.5C 384.69,26.6498 385.856,25.3164 387.5,24.5 Z"/></g>
<g><path style="opacity:0.974" fill="#050606" d="M 220.5,38.5 C 220.518,42.6365 218.518,45.1365 214.5,46C 193.167,46.3333 171.833,46.6667 150.5,47C 139,50.5 131.5,58 128,69.5C 127.333,91.5 127.333,113.5 128,135.5C 146.058,116.423 168.225,108.757 194.5,112.5C 194.334,107.489 194.501,102.489 195,97.5C 196.167,96.3333 197.333,95.1667 198.5,94C 203.731,92.2762 207.565,93.7762 210,98.5C 210.499,103.155 210.666,107.821 210.5,112.5C 236.775,108.757 258.942,116.423 277,135.5C 277.958,112.45 277.625,89.4497 276,66.5C 269.725,52.5762 258.892,45.4095 243.5,45C 241.334,43.322 240.001,41.1553 239.5,38.5C 240.418,36.1795 241.752,34.0129 243.5,32C 252.916,30.4469 261.916,31.9469 270.5,36.5C 282.933,44.4572 290.433,55.7905 293,70.5C 293.667,107.5 293.667,144.5 293,181.5C 291.955,185.04 289.788,187.374 286.5,188.5C 230.166,188.667 173.832,188.5 117.5,188C 115,186.833 113.167,185 112,182.5C 111.333,144.833 111.333,107.167 112,69.5C 116.718,49.1147 129.218,36.2814 149.5,31C 171.167,30.3333 192.833,30.3333 214.5,31C 218.518,31.8635 220.518,34.3635 220.5,38.5 Z M 220.5,38.5 C 226.833,38.5 233.167,38.5 239.5,38.5C 240.001,41.1553 241.334,43.322 243.5,45C 258.892,45.4095 269.725,52.5762 276,66.5C 277.625,89.4497 277.958,112.45 277,135.5C 258.942,116.423 236.775,108.757 210.5,112.5C 210.666,107.821 210.499,103.155 210,98.5C 207.565,93.7762 203.731,92.2762 198.5,94C 197.333,95.1667 196.167,96.3333 195,97.5C 194.501,102.489 194.334,107.489 194.5,112.5C 168.225,108.757 146.058,116.423 128,135.5C 127.333,113.5 127.333,91.5 128,69.5C 131.5,58 139,50.5 150.5,47C 171.833,46.6667 193.167,46.3333 214.5,46C 218.518,45.1365 220.518,42.6365 220.5,38.5 Z"/></g>
<g><path style="opacity:0.917" fill="#000000" d="M 447.5,57.5 C 449.857,57.3367 452.19,57.5034 454.5,58C 475.428,79.5695 480.262,104.403 469,132.5C 465.759,139.989 461.759,146.989 457,153.5C 449.773,157.98 444.94,156.147 442.5,148C 446.781,139.94 450.947,131.773 455,123.5C 459.106,112.251 459.44,100.917 456,89.5C 452.171,81.837 447.837,74.5037 443,67.5C 442.077,63.0165 443.577,59.6832 447.5,57.5 Z"/></g>
<g><path style="opacity:1" fill="#b4acb5" d="M 226.5,127.5 C 243.629,137.649 253.629,152.649 256.5,172.5C 213.833,172.5 171.167,172.5 128.5,172.5C 128.5,171.167 128.5,169.833 128.5,168.5C 134.427,146.741 148.427,133.241 170.5,128C 189.164,127.5 207.83,127.333 226.5,127.5 Z"/></g>
<g><path style="opacity:1" fill="#a599a5" d="M 226.5,127.5 C 252.572,129.85 269.238,143.516 276.5,168.5C 276.5,169.833 276.5,171.167 276.5,172.5C 269.833,172.5 263.167,172.5 256.5,172.5C 253.629,152.649 243.629,137.649 226.5,127.5 Z"/></g>
<g><path style="opacity:1" fill="#6c676c" d="M 128.5,168.5 C 128.5,169.833 128.5,171.167 128.5,172.5C 171.167,172.5 213.833,172.5 256.5,172.5C 263.167,172.5 269.833,172.5 276.5,172.5C 276.5,171.167 276.5,169.833 276.5,168.5C 277.451,169.919 277.784,171.585 277.5,173.5C 227.5,173.5 177.5,173.5 127.5,173.5C 127.216,171.585 127.549,169.919 128.5,168.5 Z"/></g>
<g><path style="opacity:1" fill="#c5eaf9" d="M 408.5,188.5 C 417.675,187.178 427.008,187.178 436.5,188.5C 436.833,189.167 437.167,189.833 437.5,190.5C 422.55,226.4 407.05,262.067 391,297.5C 380.91,312.258 368.243,324.258 353,333.5C 353.19,345.495 353.19,357.495 353,369.5C 347.108,401.726 328.108,421.059 296,427.5C 294.658,423.28 293.825,418.947 293.5,414.5C 317.462,410.601 332.628,396.935 339,373.5C 339.676,359.486 339.509,345.486 338.5,331.5C 350.527,322.303 360.693,311.303 369,298.5C 383.884,265.399 398.217,232.066 412,198.5C 413.352,195.28 414.186,191.947 414.5,188.5C 412.5,188.5 410.5,188.5 408.5,188.5 Z"/></g>
<g><path style="opacity:1" fill="#0a0c0c" d="M 162.5,215.5 C 169.657,215.155 172.824,218.488 172,225.5C 169.774,229.861 166.274,231.361 161.5,230C 156.003,224.683 156.336,219.85 162.5,215.5 Z"/></g>
<g><path style="opacity:1" fill="#98e4fa" d="M 282.5,275.5 C 289.548,284.639 294.048,294.972 296,306.5C 301.483,328.897 303.15,351.563 301,374.5C 298.779,380.61 295.779,386.277 292,391.5C 290.871,393.141 289.371,394.141 287.5,394.5C 281.395,389.989 275.895,390.656 271,396.5C 267.513,384.71 262.846,373.377 257,362.5C 249.408,354.019 242.741,354.686 237,364.5C 236.587,367.232 235.92,369.899 235,372.5C 224.999,359.503 217.332,345.169 212,329.5C 205.593,322.894 199.259,322.894 193,329.5C 187.159,344.851 179.492,359.184 170,372.5C 169.875,363.517 165.542,358.184 157,356.5C 154.181,356.993 151.681,358.16 149.5,360C 142.545,371.41 137.378,383.577 134,396.5C 126.49,389.223 119.99,390.057 114.5,399C 99.7243,398.189 89.2243,391.022 83,377.5C 80.4881,371.263 79.3214,364.763 79.5,358C 79.7685,333.659 84.2685,310.159 93,287.5C 96.531,283.307 100.698,279.807 105.5,277C 120.298,276.15 134.965,274.15 149.5,271C 158.772,267.798 168.105,264.798 177.5,262C 193.828,258.692 210.161,258.692 226.5,262C 238.703,266.067 251.037,269.734 263.5,273C 269.877,273.89 276.21,274.723 282.5,275.5 Z"/></g>
<g><path style="opacity:1" fill="#61d8f8" d="M 282.5,275.5 C 295.649,273.826 305.815,278.493 313,289.5C 321.751,314.42 325.751,340.087 325,366.5C 321.377,384.623 310.544,395.623 292.5,399.5C 290.179,398.556 288.512,396.89 287.5,394.5C 289.371,394.141 290.871,393.141 292,391.5C 295.779,386.277 298.779,380.61 301,374.5C 303.15,351.563 301.483,328.897 296,306.5C 294.048,294.972 289.548,284.639 282.5,275.5 Z"/></g>
<g><path style="opacity:1" fill="#080c0d" d="M 248.5,308.5 C 254.629,307.555 258.296,310.055 259.5,316C 258.933,320.734 256.266,323.234 251.5,323.5C 245.776,322.064 243.609,318.397 245,312.5C 246.376,311.295 247.542,309.962 248.5,308.5 Z"/></g>
<g><path style="opacity:1" fill="#080b0c" d="M 279.5,333.5 C 287.201,333.362 290.367,337.029 289,344.5C 283.837,350.062 279.171,349.729 275,343.5C 274.333,341.833 274.333,340.167 275,338.5C 276.366,336.638 277.866,334.972 279.5,333.5 Z"/></g>
<g><path style="opacity:1" fill="#06090a" d="M 111.5,342.5 C 117.523,341.197 121.189,343.53 122.5,349.5C 120.091,356.702 115.591,358.369 109,354.5C 106.523,349.669 107.356,345.669 111.5,342.5 Z"/></g>
<g><path style="opacity:1" fill="#fb636e" d="M 266.5,424.5 C 267.171,437.928 270.338,450.928 276,463.5C 279.023,474.895 277.19,485.395 270.5,495C 271.056,495.383 271.389,495.883 271.5,496.5C 259.437,495.706 247.437,494.373 235.5,492.5C 238.624,484.977 239.124,477.31 237,469.5C 232.083,459.994 226.417,450.994 220,442.5C 217.333,437.167 214.667,431.833 212,426.5C 205.349,420.887 199.016,421.22 193,427.5C 190.333,432.833 187.667,438.167 185,443.5C 179.272,451.565 173.939,459.899 169,468.5C 166.67,476.875 167.17,485.041 170.5,493C 154.859,494.628 139.193,495.628 123.5,496C 116.93,493.762 112.763,489.262 111,482.5C 110.333,476.833 110.333,471.167 111,465.5C 119.167,449.002 124.5,431.668 127,413.5C 129.797,417.299 132.964,420.799 136.5,424C 140.987,425.378 144.487,424.212 147,420.5C 146.368,406.027 149.368,392.36 156,379.5C 158.278,385.667 160.945,391.667 164,397.5C 167.043,399.908 170.209,400.074 173.5,398C 178.921,385.656 185.755,374.156 194,363.5C 196.849,357.802 199.682,352.136 202.5,346.5C 208.574,360.059 216.074,372.726 225,384.5C 226.618,388.068 227.951,391.735 229,395.5C 232.826,400.389 236.992,400.722 241.5,396.5C 244.299,390.924 246.799,385.257 249,379.5C 255.635,392.372 258.635,406.038 258,420.5C 259.677,424.051 262.51,425.384 266.5,424.5 Z"/></g>
<g><path style="opacity:1" fill="#f84553" d="M 271.5,496.5 C 271.389,495.883 271.056,495.383 270.5,495C 277.19,485.395 279.023,474.895 276,463.5C 270.338,450.928 267.171,437.928 266.5,424.5C 271.102,421.733 274.936,418.066 278,413.5C 280.501,431.672 285.834,449.005 294,465.5C 295.315,473.827 294.315,481.827 291,489.5C 285.788,495.353 279.288,497.687 271.5,496.5 Z"/></g>
<g><path style="opacity:1" fill="#f6d759" d="M 205.5,492.5 C 209.225,484.24 209.392,475.906 206,467.5C 202.97,462.985 199.803,458.651 196.5,454.5C 198.007,450.155 200.173,446.155 203,442.5C 209.166,453.503 215.833,464.17 223,474.5C 225.156,488.178 219.323,494.178 205.5,492.5 Z"/></g>
<g><path style="opacity:1" fill="#fbe67b" d="M 196.5,454.5 C 199.803,458.651 202.97,462.985 206,467.5C 209.392,475.906 209.225,484.24 205.5,492.5C 200.489,492.666 195.489,492.499 190.5,492C 187.063,490.895 184.563,488.728 183,485.5C 182.333,481.5 182.333,477.5 183,473.5C 187.031,466.748 191.531,460.415 196.5,454.5 Z"/></g>
</svg>
