<?xml version="1.0" encoding="UTF-8"?>
<!DOCTYPE svg PUBLIC "-//W3C//DTD SVG 1.1//EN" "http://www.w3.org/Graphics/SVG/1.1/DTD/svg11.dtd">
<svg xmlns="http://www.w3.org/2000/svg" version="1.1" width="512px" height="512px" style="shape-rendering:geometricPrecision; text-rendering:geometricPrecision; image-rendering:optimizeQuality; fill-rule:evenodd; clip-rule:evenodd" xmlns:xlink="http://www.w3.org/1999/xlink">
<g><path style="opacity:0.995" fill="#010000" d="M 31.5,7.5 C 132.834,7.33334 234.167,7.5 335.5,8C 343.998,10.5798 350.664,15.5798 355.5,23C 369.222,23.073 382.888,23.7397 396.5,25C 410.606,30.1058 419.44,39.9392 423,54.5C 423.167,92.8377 423.667,131.171 424.5,169.5C 436.167,163.667 447.833,157.833 459.5,152C 474.163,151.5 488.83,151.333 503.5,151.5C 503.5,183.5 503.5,215.5 503.5,247.5C 488.83,247.667 474.163,247.5 459.5,247C 447.833,241.167 436.167,235.333 424.5,229.5C 426.213,241.736 422.546,251.903 413.5,260C 400.291,266.41 388.791,264.243 379,253.5C 377.725,251.283 376.725,248.949 376,246.5C 375.5,188.168 375.333,129.834 375.5,71.5C 365.494,71.3335 355.494,71.5002 345.5,72C 339.542,80.7476 333.709,89.5809 328,98.5C 327.333,182.167 327.333,265.833 328,349.5C 338.333,385.833 348.667,422.167 359,458.5C 362.579,480.856 353.745,495.69 332.5,503C 233.167,503.667 133.833,503.667 34.5,503C 11.6826,494.537 3.18262,478.371 9,454.5C 19.2027,419.558 29.2027,384.558 39,349.5C 39.6667,265.833 39.6667,182.167 39,98.5C 29.6667,84.5 20.3333,70.5 11,56.5C 2.47307,33.5699 9.3064,17.2366 31.5,7.5 Z"/></g>
<g><path style="opacity:1" fill="#fbd66f" d="M 35.5,23.5 C 134.167,23.3333 232.834,23.5 331.5,24C 338.987,26.4759 342.987,31.6426 343.5,39.5C 236.833,39.5 130.167,39.5 23.5,39.5C 24.1531,31.5301 28.1531,26.1968 35.5,23.5 Z"/></g>
<g><path style="opacity:1" fill="#959ea9" d="M 359.5,39.5 C 369.172,39.3335 378.839,39.5002 388.5,40C 397.573,42.7392 403.74,48.5725 407,57.5C 407.667,119.167 407.667,180.833 407,242.5C 404.774,246.861 401.274,248.361 396.5,247C 394.333,246.167 392.833,244.667 392,242.5C 391.667,183.833 391.333,125.167 391,66.5C 389.221,62.3882 386.388,59.2215 382.5,57C 373.56,55.7846 364.56,55.118 355.5,55C 357.846,50.1171 359.179,44.9504 359.5,39.5 Z"/></g>
<g><path style="opacity:1" fill="#fee9a6" d="M 30.5,56.5 C 132.333,55.3342 234.333,55.1675 336.5,56C 329.5,66.3333 322.5,76.6667 315.5,87C 227.5,87.6667 139.5,87.6667 51.5,87C 44.637,76.6548 37.637,66.4881 30.5,56.5 Z"/></g>
<g><path style="opacity:1" fill="#e5e8ec" d="M 55.5,103.5 C 90.1667,103.5 124.833,103.5 159.5,103.5C 159.833,132.508 159.5,161.508 158.5,190.5C 136.107,180.108 114.44,181.275 93.5,194C 77.13,207.249 69.9634,224.416 72,245.5C 75.5858,273.181 88.7525,295.015 111.5,311C 92.8363,311.5 74.1696,311.667 55.5,311.5C 55.5,242.167 55.5,172.833 55.5,103.5 Z"/></g>
<g><path style="opacity:1" fill="#ce9d75" d="M 175.5,103.5 C 180.833,103.5 186.167,103.5 191.5,103.5C 191.833,135.84 191.5,168.174 190.5,200.5C 188.343,202.412 186.009,204.079 183.5,205.5C 180.991,204.079 178.657,202.412 176.5,200.5C 175.5,168.174 175.167,135.84 175.5,103.5 Z"/></g>
<g><path style="opacity:1" fill="#e5e8ec" d="M 207.5,103.5 C 242.167,103.5 276.833,103.5 311.5,103.5C 311.5,172.833 311.5,242.167 311.5,311.5C 292.83,311.667 274.164,311.5 255.5,311C 285.356,289.785 298.189,260.952 294,224.5C 284.989,197.145 265.989,183.478 237,183.5C 226.894,184.056 217.227,186.389 208,190.5C 207.5,161.502 207.333,132.502 207.5,103.5 Z"/></g>
<g><path style="opacity:1" fill="#000000" d="M 71.5,119.5 C 76.8333,119.5 82.1667,119.5 87.5,119.5C 87.5,124.833 87.5,130.167 87.5,135.5C 82.1667,135.5 76.8333,135.5 71.5,135.5C 71.5,130.167 71.5,124.833 71.5,119.5 Z"/></g>
<g><path style="opacity:1" fill="#000000" d="M 71.5,151.5 C 76.8333,151.5 82.1667,151.5 87.5,151.5C 87.5,156.833 87.5,162.167 87.5,167.5C 82.1667,167.5 76.8333,167.5 71.5,167.5C 71.5,162.167 71.5,156.833 71.5,151.5 Z"/></g>
<g><path style="opacity:1" fill="#fb6e50" d="M 471.5,167.5 C 476.833,167.5 482.167,167.5 487.5,167.5C 487.5,188.833 487.5,210.167 487.5,231.5C 482.167,231.5 476.833,231.5 471.5,231.5C 471.5,210.167 471.5,188.833 471.5,167.5 Z"/></g>
<g><path style="opacity:1" fill="#fd816d" d="M 454.5,172.5 C 455.662,190.329 455.829,208.329 455,226.5C 444.911,221.206 434.745,216.039 424.5,211C 423.167,203.333 423.167,195.667 424.5,188C 434.718,183.059 444.718,177.892 454.5,172.5 Z"/></g>
<g><path style="opacity:1" fill="#cc9b74" d="M 119.5,199.5 C 152.037,199.182 176.204,213.182 192,241.5C 200.641,257.746 201.641,274.413 195,291.5C 193.692,293.641 192.192,295.641 190.5,297.5C 190.89,281.766 184.223,270.266 170.5,263C 162.431,261.512 154.431,259.846 146.5,258C 139.257,251.494 136.424,243.327 138,233.5C 131.738,216.763 119.571,208.43 101.5,208.5C 106.81,203.962 112.81,200.962 119.5,199.5 Z"/></g>
<g><path style="opacity:1" fill="#cf9d6a" d="M 230.5,199.5 C 243.518,197.67 255.185,200.67 265.5,208.5C 239.338,210.166 226.505,224.166 227,250.5C 224.51,254.994 220.844,257.994 216,259.5C 211.733,244.466 204.9,230.633 195.5,218C 196.101,216.395 197.101,215.062 198.5,214C 208.323,207.123 218.989,202.289 230.5,199.5 Z"/></g>
<g><path style="opacity:1" fill="#cd9c74" d="M 90.5,222.5 C 97.2396,224.908 104.24,226.074 111.5,226C 121.267,230.365 125.1,237.865 123,248.5C 124.785,259.575 130.619,267.742 140.5,273C 149.081,275.435 157.747,277.435 166.5,279C 168.333,280.833 170.167,282.667 172,284.5C 172.977,292.294 174.477,299.961 176.5,307.5C 166.519,311.711 156.185,312.544 145.5,310C 106.951,297.46 87.7844,270.96 88,230.5C 88.9406,227.846 89.7739,225.179 90.5,222.5 Z"/></g>
<g><path style="opacity:1" fill="#d09e6a" d="M 215.5,310.5 C 210.637,310.819 205.97,310.486 201.5,309.5C 209.792,300.142 214.292,289.142 215,276.5C 226.617,274.697 235.283,268.697 241,258.5C 243.575,250.319 245.241,241.986 246,233.5C 248.167,231.333 250.333,229.167 252.5,227C 260.287,226.125 267.953,224.625 275.5,222.5C 277.145,224.925 278.311,227.592 279,230.5C 279.688,265.621 264.188,290.788 232.5,306C 226.938,307.974 221.271,309.474 215.5,310.5 Z"/></g>
<g><path style="opacity:1" fill="#75593c" d="M 201.5,309.5 C 205.97,310.486 210.637,310.819 215.5,310.5C 210.652,311.814 205.652,311.814 200.5,310.5C 200.624,309.893 200.957,309.56 201.5,309.5 Z"/></g>
<g><path style="opacity:1" fill="#fbd76f" d="M 55.5,327.5 C 140.833,327.5 226.167,327.5 311.5,327.5C 311.5,332.833 311.5,338.167 311.5,343.5C 226.167,343.5 140.833,343.5 55.5,343.5C 55.5,338.167 55.5,332.833 55.5,327.5 Z"/></g>
<g><path style="opacity:1" fill="#e4e7eb" d="M 53.5,359.5 C 140.167,359.333 226.834,359.5 313.5,360C 323.006,391.685 332.006,423.519 340.5,455.5C 332.493,455.666 324.493,455.5 316.5,455C 307.607,433.048 291.274,422.381 267.5,423C 261.876,421.044 257.043,417.877 253,413.5C 246.717,402.083 238.884,391.916 229.5,383C 223.601,379.478 217.268,377.145 210.5,376C 191.5,375.333 172.5,375.333 153.5,376C 142.515,378.732 133.681,384.565 127,393.5C 122.667,400.167 118.333,406.833 114,413.5C 105.941,421.65 96.1074,425.15 84.5,424C 67.7946,428.369 56.4613,438.703 50.5,455C 42.5069,455.5 34.5069,455.666 26.5,455.5C 35.0977,423.375 44.0977,391.375 53.5,359.5 Z"/></g>
<g><path style="opacity:1" fill="#ce9d75" d="M 155.5,391.5 C 173.17,391.333 190.836,391.5 208.5,392C 215.699,392.683 221.533,395.849 226,401.5C 232.283,412.917 240.116,423.084 249.5,432C 253.714,434.274 258.047,436.274 262.5,438C 270.273,438.796 277.939,440.13 285.5,442C 291.167,445 295.5,449.333 298.5,455C 221.833,455.667 145.167,455.667 68.5,455C 71.8891,448.611 76.8891,443.944 83.5,441C 95.5399,440.659 106.873,437.659 117.5,432C 126.884,423.084 134.717,412.917 141,401.5C 145.208,397.103 150.042,393.769 155.5,391.5 Z"/></g>
<g><path style="opacity:1" fill="#000000" d="M 159.5,407.5 C 164.833,407.5 170.167,407.5 175.5,407.5C 175.5,412.833 175.5,418.167 175.5,423.5C 170.167,423.5 164.833,423.5 159.5,423.5C 159.5,418.167 159.5,412.833 159.5,407.5 Z"/></g>
<g><path style="opacity:1" fill="#000000" d="M 207.5,407.5 C 212.833,407.5 218.167,407.5 223.5,407.5C 223.5,412.833 223.5,418.167 223.5,423.5C 218.167,423.5 212.833,423.5 207.5,423.5C 207.5,418.167 207.5,412.833 207.5,407.5 Z"/></g>
<g><path style="opacity:1" fill="#000000" d="M 127.5,431.5 C 132.833,431.5 138.167,431.5 143.5,431.5C 143.5,436.833 143.5,442.167 143.5,447.5C 138.167,447.5 132.833,447.5 127.5,447.5C 127.5,442.167 127.5,436.833 127.5,431.5 Z"/></g>
<g><path style="opacity:1" fill="#000000" d="M 191.5,431.5 C 196.833,431.5 202.167,431.5 207.5,431.5C 207.5,436.833 207.5,442.167 207.5,447.5C 202.167,447.5 196.833,447.5 191.5,447.5C 191.5,442.167 191.5,436.833 191.5,431.5 Z"/></g>
<g><path style="opacity:1" fill="#a9b1bc" d="M 24.5,471.5 C 130.5,471.5 236.5,471.5 342.5,471.5C 341.173,479.661 336.507,484.828 328.5,487C 231.833,487.667 135.167,487.667 38.5,487C 30.4652,484.802 25.7986,479.635 24.5,471.5 Z"/></g>
</svg>
