<?xml version="1.0" encoding="UTF-8"?>
<!DOCTYPE svg PUBLIC "-//W3C//DTD SVG 1.1//EN" "http://www.w3.org/Graphics/SVG/1.1/DTD/svg11.dtd">
<svg xmlns="http://www.w3.org/2000/svg" version="1.1" width="512px" height="512px" style="shape-rendering:geometricPrecision; text-rendering:geometricPrecision; image-rendering:optimizeQuality; fill-rule:evenodd; clip-rule:evenodd" xmlns:xlink="http://www.w3.org/1999/xlink">
<g><path style="opacity:0.923" fill="#000000" d="M 327.5,-0.5 C 330.167,-0.5 332.833,-0.5 335.5,-0.5C 337.27,1.11327 338.436,3.11327 339,5.5C 340.419,15.0049 338.419,23.6716 333,31.5C 328.355,35.6553 323.355,39.3219 318,42.5C 317.027,44.3921 316.36,46.3921 316,48.5C 315.667,58.5 315.333,68.5 315,78.5C 313.607,81.3661 311.274,82.6994 308,82.5C 303.167,82.6682 300.5,80.3348 300,75.5C 299.168,63.7945 299.501,52.1278 301,40.5C 302.814,35.0362 305.98,30.5362 310.5,27C 321.473,23.0923 325.973,15.2589 324,3.5C 324.69,1.64977 325.856,0.316435 327.5,-0.5 Z"/></g>
<g><path style="opacity:0.921" fill="#000000" d="M 362.5,-0.5 C 365.167,-0.5 367.833,-0.5 370.5,-0.5C 372.27,1.11327 373.436,3.11327 374,5.5C 375.067,16.2998 374.4,26.9665 372,37.5C 368.249,44.4173 362.749,49.4173 355.5,52.5C 353.226,54.7127 351.726,57.3793 351,60.5C 350.667,66.5 350.333,72.5 350,78.5C 348.471,81.516 345.971,82.8494 342.5,82.5C 337.936,82.4372 335.436,80.1038 335,75.5C 334.253,68.1185 334.586,60.7851 336,53.5C 338.44,44.7922 343.94,38.9588 352.5,36C 354.378,34.4571 355.878,32.6238 357,30.5C 358.248,21.5748 358.915,12.5748 359,3.5C 359.69,1.64977 360.856,0.316435 362.5,-0.5 Z"/></g>
<g><path style="opacity:0.983" fill="#020101" d="M 511.5,219.5 C 511.5,230.167 511.5,240.833 511.5,251.5C 505.865,286.708 497.365,321.375 486,355.5C 474.773,377.389 456.94,389.889 432.5,393C 417.504,393.5 402.504,393.667 387.5,393.5C 383.628,417.692 378.795,441.692 373,465.5C 369.777,471.723 364.943,476.223 358.5,479C 308.893,480.486 259.226,480.986 209.5,480.5C 209.855,496.096 202.855,506.43 188.5,511.5C 164.5,511.5 140.5,511.5 116.5,511.5C 112.019,509.881 107.853,507.548 104,504.5C 100.141,507.559 95.9739,509.892 91.5,511.5C 67.5,511.5 43.5,511.5 19.5,511.5C 9.5,508.167 2.83333,501.5 -0.5,491.5C -0.5,467.5 -0.5,443.5 -0.5,419.5C 1.10767,415.026 3.441,410.859 6.5,407C 3.45195,403.147 1.11861,398.981 -0.5,394.5C -0.5,370.5 -0.5,346.5 -0.5,322.5C 3.41791,310.511 11.7512,303.678 24.5,302C 45.1667,301.333 65.8333,301.333 86.5,302C 93.2391,302.455 99.0724,304.955 104,309.5C 107.221,306.306 111.054,304.306 115.5,303.5C 106.902,250.523 102.069,197.189 101,143.5C 92.0702,132.664 90.7368,120.997 97,108.5C 101.139,102.692 106.639,98.8585 113.5,97C 211.833,96.3333 310.167,96.3333 408.5,97C 426.242,103.652 432.409,116.152 427,134.5C 425.392,137.772 423.392,140.772 421,143.5C 420.5,150.492 420.334,157.492 420.5,164.5C 432.505,164.333 444.505,164.5 456.5,165C 486.68,171.347 505.013,189.514 511.5,219.5 Z M 417.5,218.5 C 427.172,218.334 436.839,218.5 446.5,219C 453.572,220.611 457.239,225.111 457.5,232.5C 456.712,251.893 453.546,270.893 448,289.5C 444.266,304.366 439.933,319.033 435,333.5C 433.457,335.378 431.624,336.878 429.5,338C 419.506,338.5 409.506,338.666 399.5,338.5C 407.451,298.792 413.451,258.792 417.5,218.5 Z"/></g>
<g><path style="opacity:1" fill="#ce8060" d="M 116.5,111.5 C 212.501,111.333 308.501,111.5 404.5,112C 413.368,115.029 415.868,120.863 412,129.5C 410.125,132.187 407.625,134.021 404.5,135C 387.5,135.333 370.5,135.667 353.5,136C 347.667,137.833 343.833,141.667 342,147.5C 341.667,178.833 341.333,210.167 341,241.5C 338.573,249.874 333.073,253.041 324.5,251C 321.667,249.5 319.5,247.333 318,244.5C 317.667,213.833 317.333,183.167 317,152.5C 312.386,139.442 303.219,133.942 289.5,136C 281.667,138.5 276.5,143.667 274,151.5C 273.913,163.224 273.246,174.89 272,186.5C 268.495,192.348 263.328,194.515 256.5,193C 253.616,191.116 251.449,188.616 250,185.5C 249.667,173.167 249.333,160.833 249,148.5C 246.728,141.894 242.228,137.727 235.5,136C 196.5,135.667 157.5,135.333 118.5,135C 109.38,132.259 106.547,126.426 110,117.5C 111.914,115.144 114.081,113.144 116.5,111.5 Z"/></g>
<g><path style="opacity:1" fill="#fed2ac" d="M 378.5,150.5 C 377.76,171.167 376.927,191.834 376,212.5C 373.667,232.167 371.333,251.833 369,271.5C 357.823,335.054 345.489,398.387 332,461.5C 331.338,462.984 330.504,464.317 329.5,465.5C 289.167,465.5 248.833,465.5 208.5,465.5C 208.667,450.163 208.5,434.83 208,419.5C 206.142,414.952 203.642,410.785 200.5,407C 203.902,403.032 206.402,398.532 208,393.5C 208.971,368.77 208.638,344.104 207,319.5C 203.172,310.837 196.672,305.337 187.5,303C 168.836,302.5 150.17,302.333 131.5,302.5C 127.454,277.587 123.954,252.587 121,227.5C 119.047,201.869 117.88,176.202 117.5,150.5C 156.168,150.333 194.835,150.5 233.5,151C 234.323,163.091 234.823,175.258 235,187.5C 242.881,207.855 256.714,213.355 276.5,204C 282.875,198.968 286.708,192.468 288,184.5C 288.333,174.5 288.667,164.5 289,154.5C 293.237,149.192 297.571,149.192 302,154.5C 302.333,184.833 302.667,215.167 303,245.5C 309.74,264.119 322.573,270.285 341.5,264C 349.864,259.288 354.697,252.122 356,242.5C 356.5,211.835 356.667,181.168 356.5,150.5C 363.833,150.5 371.167,150.5 378.5,150.5 Z"/></g>
<g><path style="opacity:1" fill="#febe97" d="M 378.5,150.5 C 387.167,150.5 395.833,150.5 404.5,150.5C 404.368,205.712 398.868,260.379 388,314.5C 378.249,363.254 368.249,411.921 358,460.5C 356.269,462.617 354.102,464.117 351.5,465C 344.174,465.5 336.841,465.666 329.5,465.5C 330.504,464.317 331.338,462.984 332,461.5C 345.489,398.387 357.823,335.054 369,271.5C 371.333,251.833 373.667,232.167 376,212.5C 376.927,191.834 377.76,171.167 378.5,150.5 Z"/></g>
<g><path style="opacity:1" fill="#fab18b" d="M 428.5,377.5 C 416.167,377.5 403.833,377.5 391.5,377.5C 391.5,376.5 391.5,375.5 391.5,374.5C 392.5,367.833 393.5,361.167 394.5,354.5C 406.505,354.667 418.505,354.5 430.5,354C 440.103,351.396 446.937,345.562 451,336.5C 458.9,310.135 465.566,283.469 471,256.5C 472.285,245.524 472.618,234.524 472,223.5C 468.029,211.026 459.529,204.36 446.5,203.5C 437.348,202.506 428.015,202.173 418.5,202.5C 418.5,201.167 418.5,199.833 418.5,198.5C 418.5,192.167 418.5,185.833 418.5,179.5C 431.875,179.143 445.208,179.643 458.5,181C 488.372,192.549 500.872,214.382 496,246.5C 494.93,256.535 493.596,266.535 492,276.5C 485.645,300.589 478.978,324.589 472,348.5C 462.9,366.298 448.4,375.964 428.5,377.5 Z"/></g>
<g><path style="opacity:1" fill="#c88e6f" d="M 418.5,198.5 C 418.5,199.833 418.5,201.167 418.5,202.5C 428.015,202.173 437.348,202.506 446.5,203.5C 436.833,203.5 427.167,203.5 417.5,203.5C 417.216,201.585 417.549,199.919 418.5,198.5 Z"/></g>
<g><path style="opacity:1" fill="#ce8160" d="M 22.5,317.5 C 44.5025,317.333 66.5025,317.5 88.5,318C 92,319.5 94.5,322 96,325.5C 96.5,350.164 96.6666,374.831 96.5,399.5C 72.4977,399.667 48.4977,399.5 24.5,399C 20.9089,398.421 18.0755,396.588 16,393.5C 14.3651,370.897 14.0318,348.23 15,325.5C 16.6904,321.979 19.1904,319.312 22.5,317.5 Z"/></g>
<g><path style="opacity:1" fill="#ce8160" d="M 162.5,317.5 C 165.655,321.901 166.655,326.568 165.5,331.5C 132.344,325.156 119.177,338.489 126,371.5C 127.833,378.667 132.333,383.167 139.5,385C 148.16,385.5 156.827,385.666 165.5,385.5C 166.554,392.963 163.887,398.963 157.5,403.5C 156.547,401.39 154.881,400.223 152.5,400C 138.837,399.5 125.171,399.333 111.5,399.5C 111.019,374.077 111.519,348.744 113,323.5C 114.663,321.083 116.829,319.25 119.5,318C 133.829,317.5 148.163,317.333 162.5,317.5 Z"/></g>
<g><path style="opacity:1" fill="#b97155" d="M 162.5,317.5 C 170.507,317.334 178.507,317.5 186.5,318C 189,319.833 191.167,322 193,324.5C 193.667,346.833 193.667,369.167 193,391.5C 190.106,397.479 185.273,400.313 178.5,400C 173.636,404.035 173.302,408.368 177.5,413C 180.774,414.202 184.107,415.202 187.5,416C 189.917,417.663 191.75,419.829 193,422.5C 193.667,444.5 193.667,466.5 193,488.5C 191.407,492.428 188.573,494.928 184.5,496C 177.174,496.5 169.841,496.666 162.5,496.5C 165.453,492.037 166.453,487.37 165.5,482.5C 177.201,477.44 181.867,468.44 179.5,455.5C 182.371,442.374 177.704,433.374 165.5,428.5C 166.726,421.792 164.726,416.292 159.5,412C 158.552,411.517 157.552,411.351 156.5,411.5C 158.467,408.988 158.8,406.321 157.5,403.5C 163.887,398.963 166.554,392.963 165.5,385.5C 177.201,380.44 181.867,371.44 179.5,358.5C 182.353,345.289 177.686,336.289 165.5,331.5C 166.655,326.568 165.655,321.901 162.5,317.5 Z"/></g>
<g><path style="opacity:1" fill="#040201" d="M 41.5,331.5 C 75.1824,324.683 88.6824,338.016 82,371.5C 80.1667,378.667 75.6667,383.167 68.5,385C 34.8495,391.682 21.6829,378.182 29,344.5C 31.3792,338.29 35.5459,333.957 41.5,331.5 Z"/></g>
<g><path style="opacity:1" fill="#030201" d="M 165.5,331.5 C 177.686,336.289 182.353,345.289 179.5,358.5C 181.867,371.44 177.201,380.44 165.5,385.5C 156.827,385.666 148.16,385.5 139.5,385C 132.333,383.167 127.833,378.667 126,371.5C 119.177,338.489 132.344,325.156 165.5,331.5 Z"/></g>
<g><path style="opacity:1" fill="#9b543e" d="M 44.5,346.5 C 52.0871,346.186 59.5871,346.519 67,347.5C 67.6667,354.5 67.6667,361.5 67,368.5C 66.5,369 66,369.5 65.5,370C 58.8333,370.667 52.1667,370.667 45.5,370C 45,369.5 44.5,369 44,368.5C 43.2036,361.087 43.3703,353.754 44.5,346.5 Z"/></g>
<g><path style="opacity:1" fill="#9b543e" d="M 141.5,346.5 C 149.087,346.186 156.587,346.519 164,347.5C 164.813,355.08 164.647,362.58 163.5,370C 156.5,370.667 149.5,370.667 142.5,370C 142,369.5 141.5,369 141,368.5C 140.204,361.087 140.37,353.754 141.5,346.5 Z"/></g>
<g><path style="opacity:1" fill="#8a624d" d="M 391.5,374.5 C 391.5,375.5 391.5,376.5 391.5,377.5C 403.833,377.5 416.167,377.5 428.5,377.5C 416.011,378.495 403.344,378.829 390.5,378.5C 390.232,376.901 390.566,375.568 391.5,374.5 Z"/></g>
<g><path style="opacity:1" fill="#ce8160" d="M 156.5,411.5 C 157.552,411.351 158.552,411.517 159.5,412C 164.726,416.292 166.726,421.792 165.5,428.5C 132.344,422.156 119.177,435.489 126,468.5C 127.736,475.237 131.903,479.737 138.5,482C 147.494,482.5 156.494,482.666 165.5,482.5C 166.453,487.37 165.453,492.037 162.5,496.5C 148.163,496.667 133.829,496.5 119.5,496C 115.942,494.108 113.442,491.275 112,487.5C 111.5,463.169 111.333,438.836 111.5,414.5C 125.504,414.667 139.504,414.5 153.5,414C 154.571,413.148 155.571,412.315 156.5,411.5 Z"/></g>
<g><path style="opacity:1" fill="#cf8160" d="M 22.5,414.5 C 47.1667,414.5 71.8333,414.5 96.5,414.5C 96.972,439.898 96.472,465.231 95,490.5C 93.1251,493.187 90.6251,495.021 87.5,496C 65.8333,496.667 44.1667,496.667 22.5,496C 20.04,494.542 17.8734,492.709 16,490.5C 14.3651,467.897 14.0318,445.23 15,422.5C 16.6904,418.979 19.1904,416.312 22.5,414.5 Z"/></g>
<g><path style="opacity:1" fill="#030101" d="M 41.5,428.5 C 75.1489,421.649 88.6489,434.983 82,468.5C 80.1667,475.667 75.6667,480.167 68.5,482C 34.8495,488.682 21.6829,475.182 29,441.5C 31.3531,435.315 35.5198,430.982 41.5,428.5 Z"/></g>
<g><path style="opacity:1" fill="#030201" d="M 165.5,428.5 C 177.704,433.374 182.371,442.374 179.5,455.5C 181.867,468.44 177.201,477.44 165.5,482.5C 156.494,482.666 147.494,482.5 138.5,482C 131.903,479.737 127.736,475.237 126,468.5C 119.177,435.489 132.344,422.156 165.5,428.5 Z"/></g>
<g><path style="opacity:1" fill="#9b543e" d="M 44.5,443.5 C 52.0871,443.186 59.5871,443.519 67,444.5C 67.8132,452.08 67.6466,459.58 66.5,467C 59.144,467.831 51.8107,467.665 44.5,466.5C 43.1695,458.803 43.1695,451.137 44.5,443.5 Z"/></g>
<g><path style="opacity:1" fill="#9b543e" d="M 141.5,443.5 C 149.087,443.186 156.587,443.519 164,444.5C 164.813,452.08 164.647,459.58 163.5,467C 156.5,467.667 149.5,467.667 142.5,467C 142,466.5 141.5,466 141,465.5C 140.237,458.118 140.403,450.784 141.5,443.5 Z"/></g>
</svg>
