<?xml version="1.0" encoding="UTF-8"?>
<!DOCTYPE svg PUBLIC "-//W3C//DTD SVG 1.1//EN" "http://www.w3.org/Graphics/SVG/1.1/DTD/svg11.dtd">
<svg xmlns="http://www.w3.org/2000/svg" version="1.1" width="512px" height="512px" style="shape-rendering:geometricPrecision; text-rendering:geometricPrecision; image-rendering:optimizeQuality; fill-rule:evenodd; clip-rule:evenodd" xmlns:xlink="http://www.w3.org/1999/xlink">
<g><path style="opacity:0.922" fill="#000000" d="M 272.5,-0.5 C 275.167,-0.5 277.833,-0.5 280.5,-0.5C 305.079,17.8111 311.246,41.1444 299,69.5C 296.361,73.6388 293.528,77.6388 290.5,81.5C 307.05,101.146 309.55,122.479 298,145.5C 293.08,154.098 286.08,160.098 277,163.5C 270.623,163.124 267.956,159.791 269,153.5C 275.018,148.146 280.352,142.146 285,135.5C 293.205,115.285 288.372,98.9516 270.5,86.5C 269.833,84.8333 269.167,83.1667 268.5,81.5C 269.154,79.8849 269.654,78.2182 270,76.5C 289.133,63.4387 293.8,46.4387 284,25.5C 279.311,19.8126 274.311,14.4793 269,9.5C 268.182,5.46947 269.349,2.13614 272.5,-0.5 Z"/></g>
<g><path style="opacity:0.914" fill="#000000" d="M 216.5,73.5 C 220.131,73.1604 223.464,73.9937 226.5,76C 249.066,95.3539 253.899,118.521 241,145.5C 236.08,154.098 229.08,160.098 220,163.5C 213.607,163.11 210.941,159.777 212,153.5C 216.808,148.734 221.475,143.734 226,138.5C 237.023,117.327 232.69,99.9941 213,86.5C 210.325,81.011 211.492,76.6776 216.5,73.5 Z"/></g>
<g><path style="opacity:0.917" fill="#000000" d="M 326.5,73.5 C 329.32,73.2475 331.986,73.7475 334.5,75C 354.707,89.6366 361.874,109.137 356,133.5C 352.323,144.694 345.823,153.861 336.5,161C 326.828,165.923 321.995,163.09 322,152.5C 327.248,148.517 331.914,143.851 336,138.5C 343.332,125.179 343.332,111.846 336,98.5C 331.333,93.8333 326.667,89.1667 322,84.5C 320.776,79.626 322.276,75.9593 326.5,73.5 Z"/></g>
<g><path style="opacity:0.979" fill="#030202" d="M 324.5,204.5 C 324.731,207.785 323.397,210.285 320.5,212C 255.167,212.333 189.833,212.667 124.5,213C 123.529,218.072 123.195,223.238 123.5,228.5C 209.833,228.5 296.167,228.5 382.5,228.5C 382.805,223.238 382.471,218.072 381.5,213C 368.167,212.667 354.833,212.333 341.5,212C 338.603,210.285 337.269,207.785 337.5,204.5C 337.428,201.478 338.762,199.312 341.5,198C 356.167,197.333 370.833,197.333 385.5,198C 394.736,201.624 399.07,208.457 398.5,218.5C 445.244,214.78 475.744,235.114 490,279.5C 496.404,317.512 483.571,347.012 451.5,368C 429.105,379.441 406.105,380.941 382.5,372.5C 370.937,394.899 354.604,413.066 333.5,427C 349.5,427.333 365.5,427.667 381.5,428C 385.007,429.33 386.673,431.83 386.5,435.5C 385.761,439.408 383.428,441.908 379.5,443C 264.5,443.5 149.5,443.667 34.5,443.5C 34.2267,445.451 34.8934,446.951 36.5,448C 71.5185,454.504 106.518,461.171 141.5,468C 215.5,468.667 289.5,468.667 363.5,468C 399.455,460.844 435.455,454.01 471.5,447.5C 471.5,446.167 471.5,444.833 471.5,443.5C 449.497,443.667 427.497,443.5 405.5,443C 401.666,441.789 399.333,439.289 398.5,435.5C 398.952,431.762 400.952,429.262 404.5,428C 430.167,427.333 455.833,427.333 481.5,428C 484.773,428.94 486.606,431.107 487,434.5C 487.667,441.5 487.667,448.5 487,455.5C 485.434,459.824 482.267,461.991 477.5,462C 442.48,468.559 407.48,475.226 372.5,482C 370.711,490.237 369.878,498.737 370,507.5C 369.31,509.35 368.144,510.684 366.5,511.5C 290.833,511.5 215.167,511.5 139.5,511.5C 138.199,510.36 137.032,509.027 136,507.5C 136.122,498.737 135.289,490.237 133.5,482C 96.3951,475.046 59.3951,467.712 22.5,460C 21.6667,459.167 20.8333,458.333 20,457.5C 18,448.833 18,440.167 20,431.5C 21.214,429.951 22.714,428.785 24.5,428C 31.1915,427.831 37.8581,427.331 44.5,426.5C 37.8413,407.055 39.6746,388.388 50,370.5C 53.102,366.647 56.9354,365.647 61.5,367.5C 62.7102,369.552 63.7102,371.718 64.5,374C 62.1463,380.543 59.6463,387.043 57,393.5C 54.7297,402.128 55.2297,410.462 58.5,418.5C 59.8184,422.332 62.1517,425.499 65.5,428C 73.8333,428.667 82.1667,428.667 90.5,428C 114.017,415.128 124.517,395.295 122,368.5C 121.086,366.336 119.919,364.336 118.5,362.5C 117.478,362.855 116.811,363.522 116.5,364.5C 107.721,377.786 98.7209,390.953 89.5,404C 81.3911,406.867 77.5578,404.034 78,395.5C 87.3633,381.635 96.53,367.635 105.5,353.5C 101.135,352.298 96.8021,352.465 92.5,354C 87.0103,356.246 81.6769,358.746 76.5,361.5C 74.0037,360.749 71.6704,359.749 69.5,358.5C 67.119,351.428 69.4523,346.595 76.5,344C 87.1732,337.965 98.5065,336.131 110.5,338.5C 110.833,338 111.167,337.5 111.5,337C 109.196,327.649 108.03,318.149 108,308.5C 107.333,276.833 107.333,245.167 108,213.5C 108.828,205.669 112.995,200.502 120.5,198C 187.167,197.333 253.833,197.333 320.5,198C 323.238,199.312 324.572,201.478 324.5,204.5 Z M 407.5,267.5 C 426.041,266.879 437.541,275.546 442,293.5C 443.095,312.074 434.595,323.574 416.5,328C 409.917,328.979 403.751,327.812 398,324.5C 398.033,306.506 398.533,288.506 399.5,270.5C 402.282,269.484 404.949,268.484 407.5,267.5 Z"/></g>
<g><path style="opacity:0.998" fill="#f1dac1" d="M 324.5,204.5 C 328.833,204.5 333.167,204.5 337.5,204.5C 337.269,207.785 338.603,210.285 341.5,212C 354.833,212.333 368.167,212.667 381.5,213C 382.471,218.072 382.805,223.238 382.5,228.5C 296.167,228.5 209.833,228.5 123.5,228.5C 123.195,223.238 123.529,218.072 124.5,213C 189.833,212.667 255.167,212.333 320.5,212C 323.397,210.285 324.731,207.785 324.5,204.5 Z"/></g>
<g><path style="opacity:1" fill="#f7ca96" d="M 408.5,233.5 C 408.5,239.833 408.5,246.167 408.5,252.5C 405.482,252.704 402.482,253.037 399.5,253.5C 398.51,247.355 398.177,241.022 398.5,234.5C 401.786,233.793 405.119,233.46 408.5,233.5 Z"/></g>
<g><path style="opacity:1" fill="#fae2c8" d="M 408.5,233.5 C 440.894,233.936 462.728,249.27 474,279.5C 481.488,314.349 469.655,340.182 438.5,357C 425.12,362.593 411.453,363.759 397.5,360.5C 399.893,354.989 401.893,349.323 403.5,343.5C 430.888,345.564 448.722,333.564 457,307.5C 459.866,279.727 448.033,261.56 421.5,253C 417.179,252.501 412.846,252.334 408.5,252.5C 408.5,246.167 408.5,239.833 408.5,233.5 Z"/></g>
<g><path style="opacity:1" fill="#a38563" d="M 398.5,234.5 C 398.177,241.022 398.51,247.355 399.5,253.5C 399.44,254.043 399.107,254.376 398.5,254.5C 397.182,247.678 397.182,241.011 398.5,234.5 Z"/></g>
<g><path style="opacity:1" fill="#fce5cb" d="M 380.5,330.5 C 351.173,389.898 303.173,417.732 236.5,414C 231.147,413.092 225.813,412.092 220.5,411C 219.62,381.773 204.953,363.44 176.5,356C 166.244,353.563 155.91,353.063 145.5,354.5C 139.491,346.498 133.158,338.831 126.5,331.5C 125.355,327.584 124.522,323.584 124,319.5C 123.5,293.835 123.333,268.169 123.5,242.5C 209.833,242.5 296.167,242.5 382.5,242.5C 382.667,268.169 382.5,293.835 382,319.5C 381.064,323.114 380.564,326.78 380.5,330.5 Z"/></g>
<g><path style="opacity:1" fill="#f7ca96" d="M 380.5,330.5 C 369.586,377.248 341.92,409.748 297.5,428C 267.833,428.667 238.167,428.667 208.5,428C 206.153,427.288 204.153,426.121 202.5,424.5C 213.538,404.349 209.871,387.516 191.5,374C 174.81,364.743 157.144,362.076 138.5,366C 132.734,355.095 128.734,343.595 126.5,331.5C 133.158,338.831 139.491,346.498 145.5,354.5C 155.91,353.063 166.244,353.563 176.5,356C 204.953,363.44 219.62,381.773 220.5,411C 225.813,412.092 231.147,413.092 236.5,414C 303.173,417.732 351.173,389.898 380.5,330.5 Z"/></g>
<g><path style="opacity:1" fill="#f6ca96" d="M 403.5,343.5 C 401.893,349.323 399.893,354.989 397.5,360.5C 393.942,360.595 390.942,359.428 388.5,357C 390.122,351.335 392.122,345.835 394.5,340.5C 397.45,341.705 400.45,342.705 403.5,343.5 Z"/></g>
<g><path style="opacity:0.998" fill="#de760d" d="M 116.5,364.5 C 117.532,385.856 109.866,403.689 93.5,418C 81.8381,418.5 70.1714,418.667 58.5,418.5C 55.2297,410.462 54.7297,402.128 57,393.5C 59.6463,387.043 62.1463,380.543 64.5,374C 63.7102,371.718 62.7102,369.552 61.5,367.5C 63.4819,363.854 66.1485,360.854 69.5,358.5C 71.6704,359.749 74.0037,360.749 76.5,361.5C 81.6769,358.746 87.0103,356.246 92.5,354C 96.8021,352.465 101.135,352.298 105.5,353.5C 96.53,367.635 87.3633,381.635 78,395.5C 77.5578,404.034 81.3911,406.867 89.5,404C 98.7209,390.953 107.721,377.786 116.5,364.5 Z"/></g>
<g><path style="opacity:1" fill="#a34e00" d="M 58.5,418.5 C 70.1714,418.667 81.8381,418.5 93.5,418C 109.866,403.689 117.532,385.856 116.5,364.5C 116.811,363.522 117.478,362.855 118.5,362.5C 119.919,364.336 121.086,366.336 122,368.5C 124.517,395.295 114.017,415.128 90.5,428C 82.1667,428.667 73.8333,428.667 65.5,428C 62.1517,425.499 59.8184,422.332 58.5,418.5 Z"/></g>
<g><path style="opacity:1" fill="#dc740d" d="M 141.5,417.5 C 136.025,418.489 130.358,418.822 124.5,418.5C 131.646,407.537 135.979,395.537 137.5,382.5C 152.957,377.795 167.957,378.961 182.5,386C 185.255,387.711 187.589,389.878 189.5,392.5C 188.088,393.806 186.421,394.64 184.5,395C 168.955,397.575 153.621,400.908 138.5,405C 135.189,410.344 136.189,414.51 141.5,417.5 Z"/></g>
<g><path style="opacity:1" fill="#d6710d" d="M 188.5,409.5 C 188.938,409.435 189.272,409.601 189.5,410C 186.833,412.667 184.167,415.333 181.5,418C 169.659,418.826 157.993,418.659 146.5,417.5C 160.421,414.449 174.421,411.782 188.5,409.5 Z"/></g>
<g><path style="opacity:1" fill="#a64f00" d="M 188.5,409.5 C 189.946,408.387 191.613,408.22 193.5,409C 190.919,416.748 186.252,422.914 179.5,427.5C 158.66,427.831 137.993,427.497 117.5,426.5C 119.862,423.808 122.196,421.141 124.5,418.5C 130.358,418.822 136.025,418.489 141.5,417.5C 143.167,417.5 144.833,417.5 146.5,417.5C 157.993,418.659 169.659,418.826 181.5,418C 184.167,415.333 186.833,412.667 189.5,410C 189.272,409.601 188.938,409.435 188.5,409.5 Z"/></g>
<g><path style="opacity:1" fill="#5d2c00" d="M 117.5,426.5 C 137.993,427.497 158.66,427.831 179.5,427.5C 158.663,428.828 137.663,428.828 116.5,427.5C 116.624,426.893 116.957,426.56 117.5,426.5 Z"/></g>
<g><path style="opacity:1" fill="#f9e2c8" d="M 386.5,435.5 C 390.5,435.5 394.5,435.5 398.5,435.5C 399.333,439.289 401.666,441.789 405.5,443C 427.497,443.5 449.497,443.667 471.5,443.5C 471.5,444.833 471.5,446.167 471.5,447.5C 435.455,454.01 399.455,460.844 363.5,468C 289.5,468.667 215.5,468.667 141.5,468C 106.518,461.171 71.5185,454.504 36.5,448C 34.8934,446.951 34.2267,445.451 34.5,443.5C 149.5,443.667 264.5,443.5 379.5,443C 383.428,441.908 385.761,439.408 386.5,435.5 Z"/></g>
<g><path style="opacity:1" fill="#786248" d="M 355.5,483.5 C 287.5,483.5 219.5,483.5 151.5,483.5C 151.5,487.833 151.5,492.167 151.5,496.5C 150.514,492.03 150.181,487.363 150.5,482.5C 219.002,482.167 287.335,482.501 355.5,483.5 Z"/></g>
<g><path style="opacity:1" fill="#fbcd98" d="M 355.5,483.5 C 355.5,487.833 355.5,492.167 355.5,496.5C 287.5,496.5 219.5,496.5 151.5,496.5C 151.5,492.167 151.5,487.833 151.5,483.5C 219.5,483.5 287.5,483.5 355.5,483.5 Z"/></g>
</svg>
