<?xml version="1.0" encoding="UTF-8"?>
<!DOCTYPE svg PUBLIC "-//W3C//DTD SVG 1.1//EN" "http://www.w3.org/Graphics/SVG/1.1/DTD/svg11.dtd">
<svg xmlns="http://www.w3.org/2000/svg" version="1.1" width="512px" height="512px" style="shape-rendering:geometricPrecision; text-rendering:geometricPrecision; image-rendering:optimizeQuality; fill-rule:evenodd; clip-rule:evenodd" xmlns:xlink="http://www.w3.org/1999/xlink">
<g><path style="opacity:0.922" fill="#000000" d="M 351.5,32.5 C 356.266,31.5511 360.1,32.8845 363,36.5C 363.927,53.545 363.593,70.545 362,87.5C 360.444,92.2798 358.111,96.6131 355,100.5C 345.637,106.227 340.637,114.561 340,125.5C 333.994,131.33 328.994,130.663 325,123.5C 324.664,108.841 330.664,97.5073 343,89.5C 344.861,87.1123 346.194,84.4456 347,81.5C 347.333,66.8333 347.667,52.1667 348,37.5C 348.997,35.6769 350.164,34.0103 351.5,32.5 Z"/></g>
<g><path style="opacity:0.975" fill="#030201" d="M 511.5,423.5 C 511.5,427.5 511.5,431.5 511.5,435.5C 503.558,449.849 492.558,461.349 478.5,470C 470.905,473.865 462.905,476.532 454.5,478C 430.167,478.667 405.833,478.667 381.5,478C 379.266,476.362 377.933,474.195 377.5,471.5C 378.053,468.413 379.72,465.913 382.5,464C 397.83,463.5 413.163,463.333 428.5,463.5C 459.873,467.155 482.54,455.155 496.5,427.5C 483.833,427.5 471.167,427.5 458.5,427.5C 310.5,427.5 162.5,427.5 14.5,427.5C 23.2574,446.403 37.9241,458.236 58.5,463C 156.5,463.333 254.5,463.667 352.5,464C 356.046,465.256 358.046,467.756 358.5,471.5C 358.067,474.195 356.734,476.362 354.5,478C 255.167,478.667 155.833,478.667 56.5,478C 39.691,475.347 25.5243,467.847 14,455.5C 8.90045,448.943 4.06711,442.276 -0.5,435.5C -0.5,431.5 -0.5,427.5 -0.5,423.5C 1.91658,417.101 6.58324,413.268 13.5,412C 59.5,411.667 105.5,411.333 151.5,411C 110.34,387.536 85.84,352.37 78,305.5C 76.663,290.2 76.163,274.867 76.5,259.5C 77.8194,252.323 77.8194,244.99 76.5,237.5C 49.537,218.412 35.8703,192.245 35.5,159C 37.9828,116.178 59.3161,87.1776 99.5,72C 111.61,68.8271 123.943,67.6605 136.5,68.5C 183.598,75.5982 211.265,102.598 219.5,149.5C 219.5,150.833 219.5,152.167 219.5,153.5C 223.5,153.5 227.5,153.5 231.5,153.5C 231.784,151.585 231.451,149.919 230.5,148.5C 223.702,104.754 199.369,75.5876 157.5,61C 144.196,57.399 130.863,56.2323 117.5,57.5C 79.5896,62.3684 51.7563,81.7018 34,115.5C 15.1326,162.687 23.7993,204.02 60,239.5C 60.5428,242.868 60.3761,246.201 59.5,249.5C 55.9343,251.807 52.2677,251.974 48.5,250C 13.2029,216.095 1.36954,175.262 13,127.5C 28.1295,81.0377 59.6295,52.871 107.5,43C 166.865,36.4268 210.031,59.5934 237,112.5C 242.37,125.314 245.537,138.647 246.5,152.5C 297.501,152.333 348.501,152.5 399.5,153C 407,155.167 411.833,160 414,167.5C 414.499,172.155 414.666,176.821 414.5,181.5C 434.836,181.333 455.169,181.5 475.5,182C 493.333,186.5 504.5,197.667 509,215.5C 509.941,232.22 509.607,248.887 508,265.5C 507.058,268.993 505.725,272.326 504,275.5C 490.599,298.578 477.599,321.912 465,345.5C 455.809,362.013 441.976,372.513 423.5,377C 408.868,378.206 394.202,378.873 379.5,379C 367.898,391.947 354.565,402.613 339.5,411C 392.167,411.333 444.833,411.667 497.5,412C 504.417,413.268 509.083,417.101 511.5,423.5 Z M 414.5,224.5 C 431.833,224.5 449.167,224.5 466.5,224.5C 466.953,235.27 466.453,245.937 465,256.5C 451.92,280.329 438.587,303.995 425,327.5C 419.907,333.919 413.407,336.252 405.5,334.5C 410.224,322.271 413.057,309.604 414,296.5C 414.5,272.502 414.667,248.502 414.5,224.5 Z"/></g>
<g><path style="opacity:1" fill="#f4c040" d="M 230.5,148.5 C 230.5,149.833 230.5,151.167 230.5,152.5C 227.167,152.5 223.833,152.5 220.5,152.5C 220.737,151.209 220.404,150.209 219.5,149.5C 211.265,102.598 183.598,75.5982 136.5,68.5C 130.405,64.4016 124.072,60.735 117.5,57.5C 130.863,56.2323 144.196,57.399 157.5,61C 199.369,75.5876 223.702,104.754 230.5,148.5 Z"/></g>
<g><path style="opacity:0.998" fill="#f7ce5c" d="M 117.5,57.5 C 124.072,60.735 130.405,64.4016 136.5,68.5C 123.943,67.6605 111.61,68.8271 99.5,72C 59.3161,87.1776 37.9828,116.178 35.5,159C 35.8703,192.245 49.537,218.412 76.5,237.5C 77.8194,244.99 77.8194,252.323 76.5,259.5C 70.3672,256.935 64.7006,253.601 59.5,249.5C 60.3761,246.201 60.5428,242.868 60,239.5C 23.7993,204.02 15.1326,162.687 34,115.5C 51.7563,81.7018 79.5896,62.3684 117.5,57.5 Z"/></g>
<g><path style="opacity:0.911" fill="#000000" d="M 298.5,67.5 C 301.508,67.8774 304.008,69.2107 306,71.5C 307.707,81.041 305.707,89.7077 300,97.5C 295.613,101.887 291.279,106.221 287,110.5C 285.208,115.367 283.875,120.367 283,125.5C 278.046,129.677 273.38,129.343 269,124.5C 267.625,113.997 270.292,104.664 277,96.5C 286.363,90.7726 291.363,82.4393 292,71.5C 293.792,69.372 295.958,68.0387 298.5,67.5 Z"/></g>
<g><path style="opacity:1" fill="#f9edd9" d="M 112.5,83.5 C 115.167,83.5 117.833,83.5 120.5,83.5C 120.667,103.836 120.5,124.169 120,144.5C 104.329,131.658 88.8288,118.658 73.5,105.5C 84.5911,94.7877 97.5911,87.4543 112.5,83.5 Z"/></g>
<g><path style="opacity:1" fill="#fdf1dc" d="M 161.5,90.5 C 167.243,98.3083 172.243,106.642 176.5,115.5C 162.878,125.283 149.378,135.283 136,145.5C 135.5,124.836 135.333,104.169 135.5,83.5C 144.504,84.5843 153.17,86.9176 161.5,90.5 Z"/></g>
<g><path style="opacity:1" fill="#f8dfbd" d="M 161.5,90.5 C 170.733,94.963 178.733,101.13 185.5,109C 182.621,111.385 179.621,113.552 176.5,115.5C 172.243,106.642 167.243,98.3083 161.5,90.5 Z"/></g>
<g><path style="opacity:1" fill="#f5ead5" d="M 62.5,117.5 C 77.2886,129.077 91.9552,140.91 106.5,153C 87.8363,153.5 69.1696,153.667 50.5,153.5C 51.5092,140.472 55.5092,128.472 62.5,117.5 Z"/></g>
<g><path style="opacity:1" fill="#fae1be" d="M 204.5,150.5 C 198.588,152.456 192.255,153.123 185.5,152.5C 185.421,145.861 184.421,139.361 182.5,133C 182.164,131.97 181.497,131.47 180.5,131.5C 184.847,127.836 189.513,124.502 194.5,121.5C 200.224,130.339 203.558,140.006 204.5,150.5 Z"/></g>
<g><path style="opacity:1" fill="#fcf0db" d="M 180.5,131.5 C 181.497,131.47 182.164,131.97 182.5,133C 184.421,139.361 185.421,145.861 185.5,152.5C 174.321,152.828 163.321,152.495 152.5,151.5C 161.833,144.833 171.167,138.167 180.5,131.5 Z"/></g>
<g><path style="opacity:1" fill="#857d6f" d="M 204.5,150.5 C 205.404,151.209 205.737,152.209 205.5,153.5C 187.488,153.833 169.488,153.5 151.5,152.5C 151.624,151.893 151.957,151.56 152.5,151.5C 163.321,152.495 174.321,152.828 185.5,152.5C 192.255,153.123 198.588,152.456 204.5,150.5 Z"/></g>
<g><path style="opacity:1" fill="#7d6320" d="M 230.5,148.5 C 231.451,149.919 231.784,151.585 231.5,153.5C 227.5,153.5 223.5,153.5 219.5,153.5C 219.5,152.167 219.5,150.833 219.5,149.5C 220.404,150.209 220.737,151.209 220.5,152.5C 223.833,152.5 227.167,152.5 230.5,152.5C 230.5,151.167 230.5,149.833 230.5,148.5 Z"/></g>
<g><path style="opacity:1" fill="#fcf0db" d="M 50.5,168.5 C 59.1667,168.5 67.8333,168.5 76.5,168.5C 76.5,185.167 76.5,201.833 76.5,218.5C 61.5269,205.224 52.8602,188.557 50.5,168.5 Z"/></g>
<g><path style="opacity:1" fill="#8f887c" d="M 50.5,168.5 C 59.3178,167.507 68.3178,167.173 77.5,167.5C 77.8324,185.244 77.4991,202.244 76.5,218.5C 76.5,201.833 76.5,185.167 76.5,168.5C 67.8333,168.5 59.1667,168.5 50.5,168.5 Z"/></g>
<g><path style="opacity:1" fill="#fb9367" d="M 395.5,168.5 C 379.833,168.5 364.167,168.5 348.5,168.5C 348.667,212.501 348.5,256.501 348,300.5C 340.035,353.785 311.201,390.619 261.5,411C 268.158,411.5 274.825,411.666 281.5,411.5C 256.67,412.663 231.67,412.83 206.5,412C 149.985,403.483 113.152,371.983 96,317.5C 95,311.5 94,305.5 93,299.5C 92.3333,256.167 92.3333,212.833 93,169.5C 93.7504,168.874 94.5838,168.374 95.5,168C 195.668,167.168 295.668,167.334 395.5,168.5 Z"/></g>
<g><path style="opacity:1" fill="#fd7c43" d="M 395.5,168.5 C 396.496,168.414 397.329,168.748 398,169.5C 398.667,212.833 398.667,256.167 398,299.5C 390.751,349.416 363.918,384.249 317.5,404C 305.946,408.723 293.946,411.223 281.5,411.5C 274.825,411.666 268.158,411.5 261.5,411C 311.201,390.619 340.035,353.785 348,300.5C 348.5,256.501 348.667,212.501 348.5,168.5C 364.167,168.5 379.833,168.5 395.5,168.5 Z"/></g>
<g><path style="opacity:1" fill="#f99166" d="M 472.5,197.5 C 469.482,197.335 466.482,197.502 463.5,198C 466.474,201.128 468.807,204.628 470.5,208.5C 451.5,208.5 432.5,208.5 413.5,208.5C 413.5,204.5 413.5,200.5 413.5,196.5C 433.34,196.17 453.007,196.503 472.5,197.5 Z"/></g>
<g><path style="opacity:1" fill="#f87a41" d="M 472.5,197.5 C 483.768,200.268 490.935,207.268 494,218.5C 494.667,231.5 494.667,244.5 494,257.5C 493.489,259.878 492.822,262.212 492,264.5C 477,291.167 462,317.833 447,344.5C 437.955,355.939 426.122,361.939 411.5,362.5C 417.806,358.194 423.139,352.861 427.5,346.5C 431.104,343.398 434.604,340.065 438,336.5C 453.189,310.123 467.855,283.456 482,256.5C 482.667,244.5 482.667,232.5 482,220.5C 479.981,214.65 476.148,210.65 470.5,208.5C 468.807,204.628 466.474,201.128 463.5,198C 466.482,197.502 469.482,197.335 472.5,197.5 Z"/></g>
<g><path style="opacity:1" fill="#050301" d="M 271.5,237.5 C 295.68,237.193 304.847,248.859 299,272.5C 289.661,305.598 267.828,323.764 233.5,327C 227.056,327.915 220.723,327.581 214.5,326C 213.213,324.59 212.046,323.09 211,321.5C 207.523,276.024 227.69,248.024 271.5,237.5 Z"/></g>
<g><path style="opacity:1" fill="#b4e467" d="M 267.5,253.5 C 269.527,253.338 271.527,253.505 273.5,254C 258,269.5 242.5,285 227,300.5C 228.166,284.006 235.666,271.173 249.5,262C 255.366,258.667 261.366,255.834 267.5,253.5 Z"/></g>
<g><path style="opacity:1" fill="#a2da35" d="M 240.5,310.5 C 248.259,305.408 254.259,298.742 258.5,290.5C 266.798,281.702 275.298,273.035 284,264.5C 284.548,269.764 283.548,274.764 281,279.5C 273.14,297.193 259.64,307.526 240.5,310.5 Z"/></g>
<g><path style="opacity:1" fill="#aad760" d="M 258.5,290.5 C 254.259,298.742 248.259,305.408 240.5,310.5C 239.749,311.573 238.749,311.74 237.5,311C 244.368,303.964 251.368,297.131 258.5,290.5 Z"/></g>
<g><path style="opacity:1" fill="#f68f64" d="M 427.5,346.5 C 423.139,352.861 417.806,358.194 411.5,362.5C 404.8,362.83 398.134,362.497 391.5,361.5C 393.898,358.429 395.898,355.095 397.5,351.5C 404.142,350.669 410.809,350.169 417.5,350C 420.894,348.925 424.228,347.758 427.5,346.5 Z"/></g>
<g><path style="opacity:0.999" fill="#ccbeb9" d="M 458.5,427.5 C 458.66,429.199 458.494,430.866 458,432.5C 454.054,438.779 449.721,444.779 445,450.5C 439.888,455.459 434.388,459.793 428.5,463.5C 413.163,463.333 397.83,463.5 382.5,464C 379.72,465.913 378.053,468.413 377.5,471.5C 371.167,471.5 364.833,471.5 358.5,471.5C 358.046,467.756 356.046,465.256 352.5,464C 254.5,463.667 156.5,463.333 58.5,463C 37.9241,458.236 23.2574,446.403 14.5,427.5C 162.5,427.5 310.5,427.5 458.5,427.5 Z"/></g>
<g><path style="opacity:1" fill="#b7aaaa" d="M 458.5,427.5 C 471.167,427.5 483.833,427.5 496.5,427.5C 482.54,455.155 459.873,467.155 428.5,463.5C 434.388,459.793 439.888,455.459 445,450.5C 449.721,444.779 454.054,438.779 458,432.5C 458.494,430.866 458.66,429.199 458.5,427.5 Z"/></g>
</svg>
