<?xml version="1.0" encoding="UTF-8"?>
<!DOCTYPE svg PUBLIC "-//W3C//DTD SVG 1.1//EN" "http://www.w3.org/Graphics/SVG/1.1/DTD/svg11.dtd">
<svg xmlns="http://www.w3.org/2000/svg" version="1.1" width="512px" height="512px" style="shape-rendering:geometricPrecision; text-rendering:geometricPrecision; image-rendering:optimizeQuality; fill-rule:evenodd; clip-rule:evenodd" xmlns:xlink="http://www.w3.org/1999/xlink">
<g><path style="opacity:1" fill="#00141e" d="M 244.5,-0.5 C 255.167,-0.5 265.833,-0.5 276.5,-0.5C 301.465,3.31504 323.798,13.1484 343.5,29C 356.701,42.3686 370.035,55.5353 383.5,68.5C 383.511,70.0174 384.177,71.1841 385.5,72C 371.661,63.727 356.494,59.227 340,58.5C 336.477,58.7067 332.977,59.04 329.5,59.5C 304.946,35.3725 275.612,26.2058 241.5,32C 222.358,36.3429 205.691,45.1763 191.5,58.5C 184.5,51.1667 177.5,43.8333 170.5,36.5C 191.121,16.1896 215.787,3.85626 244.5,-0.5 Z"/></g>
<g><path style="opacity:0.99" fill="#0f2d3c" d="M 511.5,103.5 C 511.5,110.833 511.5,118.167 511.5,125.5C 506.971,144.69 495.638,158.023 477.5,165.5C 467.265,152.926 456.265,140.926 444.5,129.5C 447.972,127.742 451.638,127.242 455.5,128C 459.838,130.169 464.172,132.336 468.5,134.5C 474.599,132.231 478.432,127.898 480,121.5C 481.53,108.754 478.196,97.421 470,87.5C 464.143,80.6448 457.976,74.1448 451.5,68C 441.345,61.1358 431.012,60.8025 420.5,67C 410.977,76.4052 408.977,87.2386 414.5,99.5C 408.702,94.2029 403.035,88.7029 397.5,83C 396.833,82.3333 396.167,82.3333 395.5,83C 365.632,112.701 335.965,142.535 306.5,172.5C 306.167,172.5 305.833,172.5 305.5,172.5C 287.167,153.833 268.833,135.167 250.5,116.5C 254.233,112.773 257.566,108.773 260.5,104.5C 269.965,95.5356 279.298,86.3689 288.5,77C 300.506,67.332 314.172,61.4987 329.5,59.5C 332.977,59.04 336.477,58.7067 340,58.5C 356.494,59.227 371.661,63.727 385.5,72C 384.177,71.1841 383.511,70.0174 383.5,68.5C 394.146,41.3297 414.146,29.163 443.5,32C 455.461,34.3145 466.127,39.3145 475.5,47C 492.977,62.4795 504.977,81.3129 511.5,103.5 Z M 444.5,129.5 C 434.14,119.806 424.14,109.806 414.5,99.5C 408.977,87.2386 410.977,76.4052 420.5,67C 431.012,60.8025 441.345,61.1358 451.5,68C 457.976,74.1448 464.143,80.6448 470,87.5C 478.196,97.421 481.53,108.754 480,121.5C 478.432,127.898 474.599,132.231 468.5,134.5C 464.172,132.336 459.838,130.169 455.5,128C 451.638,127.242 447.972,127.742 444.5,129.5 Z"/></g>
<g><path style="opacity:0.974" fill="#0f2d3b" d="M 170.5,36.5 C 177.5,43.8333 184.5,51.1667 191.5,58.5C 158.327,97.2454 154.827,138.579 181,182.5C 184.699,187.027 188.532,191.361 192.5,195.5C 191.101,216.239 196.101,235.239 207.5,252.5C 207.333,252.833 207.167,253.167 207,253.5C 203.902,249.893 200.402,246.893 196.5,244.5C 185.869,233.368 175.035,222.368 164,211.5C 130.53,169.521 123.864,123.521 144,73.5C 150.758,59.592 159.591,47.2587 170.5,36.5 Z"/></g>
<g><path style="opacity:1" fill="#1e465a" d="M 414.5,99.5 C 424.14,109.806 434.14,119.806 444.5,129.5C 456.265,140.926 467.265,152.926 477.5,165.5C 494.937,195.349 497.104,226.349 484,258.5C 480.919,264.331 477.585,269.998 474,275.5C 463.661,287.005 452.828,298.005 441.5,308.5C 396.5,263.167 351.5,217.833 306.5,172.5C 335.965,142.535 365.632,112.701 395.5,83C 396.167,82.3333 396.833,82.3333 397.5,83C 403.035,88.7029 408.702,94.2029 414.5,99.5 Z"/></g>
<g><path style="opacity:0.967" fill="#00141e" d="M 260.5,104.5 C 257.566,108.773 254.233,112.773 250.5,116.5C 246.773,120.233 242.773,123.566 238.5,126.5C 233.17,122.003 228.337,117.003 224,111.5C 220.239,98.6863 224.906,91.0196 238,88.5C 240.185,88.9212 242.351,89.4212 244.5,90C 250.003,94.6706 255.336,99.504 260.5,104.5 Z"/></g>
<g><path style="opacity:0.992" fill="#1e4659" d="M 250.5,116.5 C 268.833,135.167 287.167,153.833 305.5,172.5C 275.854,202.479 246.188,232.479 216.5,262.5C 236.153,282.653 255.986,302.653 276,322.5C 276.464,323.094 276.631,323.761 276.5,324.5C 243.833,324.5 211.167,324.5 178.5,324.5C 174.44,322.703 170.94,320.037 168,316.5C 166.947,309.398 166.113,302.398 165.5,295.5C 166.929,272.958 177.262,255.958 196.5,244.5C 200.402,246.893 203.902,249.893 207,253.5C 207.167,253.167 207.333,252.833 207.5,252.5C 196.101,235.239 191.101,216.239 192.5,195.5C 195.273,180.365 201.44,166.699 211,154.5C 220.369,145.298 229.536,135.965 238.5,126.5C 242.773,123.566 246.773,120.233 250.5,116.5 Z"/></g>
<g><path style="opacity:0.998" fill="#2c5e77" d="M 305.5,172.5 C 305.833,172.5 306.167,172.5 306.5,172.5C 351.5,217.833 396.5,263.167 441.5,308.5C 429.228,322.609 415.561,335.109 400.5,346C 353.914,368.648 312.58,361.481 276.5,324.5C 276.631,323.761 276.464,323.094 276,322.5C 255.986,302.653 236.153,282.653 216.5,262.5C 246.188,232.479 275.854,202.479 305.5,172.5 Z"/></g>
<g><path style="opacity:0.982" fill="#e64214" d="M 165.5,295.5 C 166.113,302.398 166.947,309.398 168,316.5C 170.94,320.037 174.44,322.703 178.5,324.5C 163.798,326.682 152.298,334.015 144,346.5C 139.376,353.414 135.543,360.748 132.5,368.5C 121.5,368.5 110.5,368.5 99.5,368.5C 107.273,339.592 123.607,317.092 148.5,301C 153.891,298.258 159.558,296.425 165.5,295.5 Z"/></g>
<g><path style="opacity:0.992" fill="#8cd2ff" d="M 94.5,368.5 C 94.5,416.167 94.5,463.833 94.5,511.5C 79.5,511.5 64.5,511.5 49.5,511.5C 42.4872,508.165 38.9872,502.498 39,494.5C 17.4244,478.347 4.25774,457.014 -0.5,430.5C -0.5,413.167 -0.5,395.833 -0.5,378.5C 1.73934,373.766 5.40601,370.599 10.5,369C 38.498,368.5 66.498,368.333 94.5,368.5 Z"/></g>
<g><path style="opacity:1" fill="#64b4fe" d="M 94.5,368.5 C 96.1667,368.5 97.8333,368.5 99.5,368.5C 110.5,368.5 121.5,368.5 132.5,368.5C 148.17,368.333 163.837,368.5 179.5,369C 185.026,370.526 188.526,374.026 190,379.5C 190.667,395.5 190.667,411.5 190,427.5C 186.55,455.085 173.717,477.085 151.5,493.5C 151.353,501.817 147.687,507.817 140.5,511.5C 125.167,511.5 109.833,511.5 94.5,511.5C 94.5,463.833 94.5,416.167 94.5,368.5 Z"/></g>
</svg>
