<?xml version="1.0" encoding="UTF-8"?>
<!DOCTYPE svg PUBLIC "-//W3C//DTD SVG 1.1//EN" "http://www.w3.org/Graphics/SVG/1.1/DTD/svg11.dtd">
<svg xmlns="http://www.w3.org/2000/svg" version="1.1" width="512px" height="512px" style="shape-rendering:geometricPrecision; text-rendering:geometricPrecision; image-rendering:optimizeQuality; fill-rule:evenodd; clip-rule:evenodd" xmlns:xlink="http://www.w3.org/1999/xlink">
<g><path style="opacity:0.987" fill="#000000" d="M 50.5,337.5 C 54.747,338.221 57.9137,340.555 60,344.5C 60.5,376.498 60.6666,408.498 60.5,440.5C 143.833,440.5 227.167,440.5 310.5,440.5C 310.667,351.166 310.5,261.833 310,172.5C 295.167,148.833 280.333,125.167 265.5,101.5C 260.544,100.506 255.544,100.173 250.5,100.5C 250.972,125.565 250.472,150.565 249,175.5C 247.363,177.81 245.196,179.31 242.5,180C 204.167,180.667 165.833,180.667 127.5,180C 123.594,179.027 121.427,176.527 121,172.5C 120.5,148.502 120.333,124.502 120.5,100.5C 115.456,100.173 110.456,100.506 105.5,101.5C 90.6667,125.167 75.8333,148.833 61,172.5C 60.6667,205.167 60.3333,237.833 60,270.5C 58.445,275.18 55.2783,277.847 50.5,278.5C 45.9787,278.608 42.812,276.608 41,272.5C 40.3333,236.833 40.3333,201.167 41,165.5C 58.3644,138.3 75.5311,110.967 92.5,83.5C 93.5,82.6667 94.5,81.8333 95.5,81C 124.5,80.6667 153.5,80.3333 182.5,80C 200.774,34.7376 234.107,8.40426 282.5,1C 340.589,-3.16178 383.089,20.3382 410,71.5C 414.958,83.0417 418.291,95.0417 420,107.5C 420.333,143.5 420.667,179.5 421,215.5C 437.696,231.862 454.029,248.528 470,265.5C 470.667,302.167 470.667,338.833 470,375.5C 468.833,377.333 467.333,378.833 465.5,380C 428.833,380.667 392.167,380.667 355.5,380C 353.667,378.833 352.167,377.333 351,375.5C 350.333,338.833 350.333,302.167 351,265.5C 366.971,248.528 383.304,231.862 400,215.5C 400.898,180.149 400.565,144.816 399,109.5C 392.161,69.6612 369.995,42.1612 332.5,27C 285.19,12.9923 246.024,25.159 215,63.5C 211.454,68.7551 208.288,74.2551 205.5,80C 228.833,80.3333 252.167,80.6667 275.5,81C 278.011,83.1793 280.178,85.6793 282,88.5C 297.75,114.335 313.75,140.001 330,165.5C 330.667,278.833 330.667,392.167 330,505.5C 328.833,507.333 327.333,508.833 325.5,510C 232.167,510.667 138.833,510.667 45.5,510C 43.6667,508.833 42.1667,507.333 41,505.5C 40.3333,451.5 40.3333,397.5 41,343.5C 42.812,339.392 45.9787,337.392 50.5,337.5 Z"/></g>
<g><path style="opacity:1" fill="#f3d69f" d="M 50.5,337.5 C 50.5,331.167 50.5,324.833 50.5,318.5C 59.2577,316.426 62.091,311.093 59,302.5C 56.6022,299.892 53.7688,298.225 50.5,297.5C 50.5,291.167 50.5,284.833 50.5,278.5C 55.2783,277.847 58.445,275.18 60,270.5C 60.3333,237.833 60.6667,205.167 61,172.5C 75.8333,148.833 90.6667,125.167 105.5,101.5C 110.456,100.506 115.456,100.173 120.5,100.5C 120.333,124.502 120.5,148.502 121,172.5C 121.427,176.527 123.594,179.027 127.5,180C 165.833,180.667 204.167,180.667 242.5,180C 245.196,179.31 247.363,177.81 249,175.5C 250.472,150.565 250.972,125.565 250.5,100.5C 255.544,100.173 260.544,100.506 265.5,101.5C 280.333,125.167 295.167,148.833 310,172.5C 310.5,261.833 310.667,351.166 310.5,440.5C 227.167,440.5 143.833,440.5 60.5,440.5C 60.6666,408.498 60.5,376.498 60,344.5C 57.9137,340.555 54.747,338.221 50.5,337.5 Z"/></g>
<g><path style="opacity:1" fill="#eec889" d="M 140.5,100.5 C 152.833,100.5 165.167,100.5 177.5,100.5C 175.953,107.065 175.286,113.732 175.5,120.5C 163.692,119.135 159.192,124.135 162,135.5C 163.109,137.815 164.943,139.315 167.5,140C 179.167,140.667 190.833,140.667 202.5,140C 210.318,136.547 212.151,131.047 208,123.5C 204.199,121.074 200.032,120.074 195.5,120.5C 195.387,113.745 196.053,107.078 197.5,100.5C 208.5,100.5 219.5,100.5 230.5,100.5C 230.5,120.5 230.5,140.5 230.5,160.5C 200.5,160.5 170.5,160.5 140.5,160.5C 140.5,140.5 140.5,120.5 140.5,100.5 Z"/></g>
<g><path style="opacity:1" fill="#020201" d="M 92.5,210.5 C 125.532,207.895 153.032,218.895 175,243.5C 175.333,238.167 175.667,232.833 176,227.5C 179.794,220.202 185.294,218.702 192.5,223C 193.46,224.419 194.293,225.919 195,227.5C 195.333,254.833 195.667,282.167 196,309.5C 218.741,283.38 247.241,272.88 281.5,278C 284.583,278.786 286.749,280.619 288,283.5C 293,330.671 274.167,364.504 231.5,385C 219.942,389.724 207.942,391.891 195.5,391.5C 195.666,398.508 195.5,405.508 195,412.5C 193.155,418.679 188.988,421.179 182.5,420C 178.594,419.027 176.427,416.527 176,412.5C 175.5,383.502 175.333,354.502 175.5,325.5C 129.442,323.291 98.9423,300.291 84,256.5C 81.2142,243.551 80.8809,230.551 83,217.5C 85.4401,214.044 88.6068,211.711 92.5,210.5 Z"/></g>
<g><path style="opacity:1" fill="#afcf79" d="M 101.5,230.5 C 135.213,231.354 158.88,247.187 172.5,278C 174.189,281.713 175.023,285.546 175,289.5C 168.5,283 162,276.5 155.5,270C 144.289,264.846 138.789,268.346 139,280.5C 145.429,288.933 152.596,296.766 160.5,304C 129.103,296.603 109.603,277.103 102,245.5C 101.501,240.511 101.334,235.511 101.5,230.5 Z"/></g>
<g><path style="opacity:1" fill="#94bf4d" d="M 399.5,245.5 C 400.12,252.065 400.953,258.732 402,265.5C 407.534,272.076 413.201,272.076 419,265.5C 420.212,258.913 420.879,252.246 421,245.5C 430.667,255.167 440.333,264.833 450,274.5C 450.499,279.823 450.666,285.156 450.5,290.5C 423.833,290.5 397.167,290.5 370.5,290.5C 370.334,285.156 370.501,279.823 371,274.5C 380.702,264.965 390.202,255.298 399.5,245.5 Z"/></g>
<g><path style="opacity:1" fill="#afcf79" d="M 255.5,296.5 C 260.167,296.5 264.833,296.5 269.5,296.5C 269.639,325.059 257.639,346.892 233.5,362C 226.225,366.09 218.559,368.757 210.5,370C 218.404,362.766 225.571,354.933 232,346.5C 233.022,336.525 228.522,332.358 218.5,334C 210.697,340.802 203.197,347.969 196,355.5C 203.686,323.647 223.52,303.981 255.5,296.5 Z"/></g>
<g><path style="opacity:0.943" fill="#030201" d="M 50.5,297.5 C 53.7688,298.225 56.6022,299.892 59,302.5C 62.091,311.093 59.2577,316.426 50.5,318.5C 40.8275,316.49 37.9942,310.823 42,301.5C 44.2276,298.922 47.0609,297.589 50.5,297.5 Z"/></g>
<g><path style="opacity:1" fill="#b1d27a" d="M 370.5,310.5 C 397.167,310.5 423.833,310.5 450.5,310.5C 450.5,327.167 450.5,343.833 450.5,360.5C 423.833,360.5 397.167,360.5 370.5,360.5C 370.5,343.833 370.5,327.167 370.5,310.5 Z"/></g>
<g><path style="opacity:1" fill="#eec989" d="M 60.5,460.5 C 143.833,460.5 227.167,460.5 310.5,460.5C 310.5,470.5 310.5,480.5 310.5,490.5C 227.167,490.5 143.833,490.5 60.5,490.5C 60.5,480.5 60.5,470.5 60.5,460.5 Z"/></g>
</svg>
